<svg viewBox="0 0 140 140" fill="none" xmlns="http://www.w3.org/2000/svg">
    <circle cx="70" cy="70" r="70" fill="#334155" />
    <path fill-rule="evenodd" clip-rule="evenodd"
        d="M46.928 103.359C46.2131 102.883 46.02 101.917 46.4965 101.202L91.4375 33.7908C91.914 33.076 92.8798 32.8828 93.5946 33.3594L96.1832 35.0851C96.898 35.5617 97.0912 36.5275 96.6147 37.2423L51.6737 104.654C51.1972 105.368 50.2314 105.562 49.5166 105.085L46.928 103.359Z"
        fill="white" />
    <path
        d="M27 61.2308V56.8661L29.6864 56.1848V35.2981L27 34.6168V30.2308H29.6864H39.3035L45.6075 50.649H45.7149L51.8398 30.2308H64V34.6168L61.2957 35.2981V56.1848L64 56.8661V61.2308H52.3233V56.8661L55.135 56.1848V52.1394L55.2783 37.555L55.1709 37.5337L47.7924 61.2308H42.8495L35.3635 37.8104L35.2381 37.8317L35.668 51.1175V56.1848L38.6946 56.8661V61.2308H27Z"
        fill="white" />
    <path
        d="M77.2049 109.76V105.395L80.2838 104.714V83.8269L77.2049 83.1456V78.7596H80.2838H87.6116L99.5988 98.603H99.7219V83.8269L95.8014 83.1456V78.7596H106.105H109.205V83.1456L106.105 83.8269V109.76H99.0035L86.7905 90.342H86.6674V104.714L90.6084 105.395V109.76H77.2049Z"
        fill="white" />
</svg>