<svg width="237" height="88" viewBox="0 0 237 88" fill="none" xmlns="http://www.w3.org/2000/svg">
<g clip-path="url(#clip0_96_82)">
<rect width="237" height="88" fill="white"/>
<circle cx="28" cy="28" r="28" fill="#CBD5E1"/>
<path fill-rule="evenodd" clip-rule="evenodd" d="M18.9006 41.43C18.5432 41.1918 18.4466 40.7089 18.6849 40.3514L36.4886 13.6458C36.7269 13.2884 37.2098 13.1918 37.5672 13.43L38.3438 13.9478C38.7012 14.186 38.7978 14.6689 38.5595 15.0264L20.7557 41.732C20.5175 42.0894 20.0346 42.186 19.6771 41.9477L18.9006 41.43Z" fill="white"/>
<path d="M10.8 24.4923V22.7464L11.8746 22.4739V14.1192L10.8 13.8467V12.0923H11.8746H15.7214L18.243 20.2596H18.286L20.736 12.0923H25.6V13.8467L24.5183 14.1192V22.4739L25.6 22.7464V24.4923H20.9294V22.7464L22.0541 22.4739V20.8558L22.1114 15.022L22.0684 15.0135L19.117 24.4923H17.1398L14.1454 15.1242L14.0953 15.1327L14.2672 20.447V22.4739L15.4779 22.7464V24.4923H10.8Z" fill="white"/>
<path d="M30.882 43.9038V42.1579L32.1135 41.8854V33.5308L30.882 33.2582V31.5038H32.1135H35.0446L39.8395 39.4412H39.8888V33.5308L38.3206 33.2582V31.5038H42.4422H43.682V33.2582L42.4422 33.5308V43.9038H39.6014L34.7162 36.1368H34.6669V41.8854L36.2433 42.1579V43.9038H30.882Z" fill="white"/>
<path d="M80.3438 25V22.7979L81.9551 22.4541V11.916L80.3438 11.5723V9.35938H81.9551H87.7236L91.5049 19.6611H91.5693L95.2432 9.35938H102.537V11.5723L100.915 11.916V22.4541L102.537 22.7979V25H95.5332V22.7979L97.2197 22.4541V20.4131L97.3057 13.0547L97.2412 13.0439L92.8154 25H89.8506L85.3604 13.1836L85.2852 13.1943L85.543 19.8975V22.4541L87.3584 22.7979V25H80.3438ZM107.328 25.2256C106.204 25.2256 105.287 24.9069 104.578 24.2695C103.869 23.6322 103.515 22.7835 103.515 21.7236C103.515 21.0003 103.708 20.3594 104.095 19.8008C104.489 19.2422 105.076 18.8053 105.856 18.4902C106.644 18.168 107.629 18.0068 108.811 18.0068H110.024V17.3193C110.024 16.8538 109.892 16.46 109.627 16.1377C109.362 15.8083 108.943 15.6436 108.37 15.6436C108.127 15.6436 107.897 15.6758 107.683 15.7402C107.475 15.7975 107.285 15.8835 107.113 15.998L106.855 17.4805H104.202L104.148 14.2471C104.807 13.9535 105.495 13.6992 106.211 13.4844C106.934 13.2695 107.74 13.1621 108.628 13.1621C110.211 13.1621 111.467 13.5273 112.398 14.2578C113.329 14.9811 113.795 16.016 113.795 17.3623V21.6484C113.795 21.8132 113.795 21.9743 113.795 22.1318C113.802 22.2894 113.82 22.4398 113.849 22.583L115.105 22.7979V25H110.701C110.608 24.8711 110.508 24.6992 110.4 24.4844C110.293 24.2695 110.218 24.0547 110.175 23.8398C109.824 24.2767 109.43 24.6169 108.993 24.8604C108.556 25.1038 108.001 25.2256 107.328 25.2256ZM108.488 22.5615C108.76 22.5615 109.033 22.5078 109.305 22.4004C109.584 22.2858 109.824 22.1175 110.024 21.8955V20.2197H108.854C108.345 20.2197 107.951 20.3307 107.672 20.5527C107.4 20.7747 107.264 21.0684 107.264 21.4336C107.264 21.7845 107.378 22.0602 107.607 22.2607C107.837 22.4613 108.13 22.5615 108.488 22.5615ZM116.298 25V22.7979L117.651 22.4541V15.9336L116.04 15.5898V13.377H121.207L121.293 14.7949L121.314 15.085C121.572 14.4261 121.891 13.9427 122.271 13.6348C122.657 13.3197 123.137 13.1621 123.71 13.1621C123.868 13.1621 124.054 13.1764 124.269 13.2051C124.483 13.2266 124.702 13.2695 124.924 13.334L124.548 16.793L122.937 16.7178C122.564 16.7035 122.271 16.7464 122.056 16.8467C121.848 16.9398 121.637 17.0973 121.422 17.3193V22.4541L122.775 22.7979V25H116.298ZM131.015 25.2256C129.862 25.2256 128.87 24.9714 128.039 24.4629C127.208 23.9544 126.571 23.2562 126.127 22.3682C125.683 21.4801 125.461 20.4668 125.461 19.3281V19.0811C125.461 17.9137 125.69 16.8861 126.148 15.998C126.614 15.11 127.258 14.4154 128.082 13.9141C128.913 13.4128 129.88 13.1621 130.982 13.1621C132.092 13.1621 133.041 13.3304 133.829 13.667C134.624 14.0036 135.251 14.3545 135.709 14.7197L135.645 18.3828H132.841L132.39 16.2773C132.268 16.1556 132.103 16.0553 131.896 15.9766C131.695 15.8978 131.527 15.8584 131.391 15.8584C130.854 15.8584 130.427 15.9766 130.112 16.2129C129.797 16.4421 129.572 16.793 129.436 17.2656C129.299 17.7383 129.231 18.3434 129.231 19.0811V19.3281C129.231 20.0944 129.321 20.6995 129.5 21.1436C129.686 21.5804 129.919 21.8919 130.198 22.0781C130.478 22.2643 130.764 22.3574 131.058 22.3574C131.509 22.3574 131.856 22.2464 132.1 22.0244C132.35 21.7952 132.544 21.4622 132.68 21.0254H135.838L135.881 21.0898C135.709 22.0137 135.44 22.7835 135.075 23.3994C134.71 24.0081 134.201 24.4665 133.55 24.7744C132.905 25.0752 132.06 25.2256 131.015 25.2256ZM142.315 25V22.7979L143.927 22.4541V11.916L142.315 11.5723V9.35938H143.927H147.762L154.035 19.3711H154.1V11.916L152.048 11.5723V9.35938H157.44H159.062V11.5723L157.44 11.916V25H153.724L147.332 15.2031H147.268V22.4541L149.33 22.7979V25H142.315ZM165.551 25.2256C164.412 25.2256 163.417 24.9821 162.564 24.4951C161.719 24.001 161.061 23.3278 160.588 22.4756C160.122 21.6234 159.89 20.6602 159.89 19.5859V19.1885C159.89 18.0068 160.097 16.9613 160.513 16.0518C160.928 15.1423 161.537 14.4333 162.339 13.9248C163.141 13.4092 164.126 13.1549 165.293 13.1621C166.346 13.1621 167.234 13.3662 167.957 13.7744C168.688 14.1755 169.243 14.7699 169.622 15.5576C170.002 16.3382 170.191 17.3014 170.191 18.4473V20.3916H163.8L163.789 20.4668C163.846 20.832 163.968 21.1579 164.154 21.4443C164.348 21.7236 164.613 21.9456 164.949 22.1104C165.286 22.2751 165.701 22.3574 166.195 22.3574C166.682 22.3574 167.159 22.3037 167.624 22.1963C168.097 22.0817 168.594 21.9027 169.117 21.6592L169.977 23.9365C169.454 24.3089 168.816 24.6169 168.064 24.8604C167.312 25.1038 166.475 25.2256 165.551 25.2256ZM163.8 18.0605H166.754V17.7812C166.754 17.3659 166.711 17.0186 166.625 16.7393C166.546 16.46 166.407 16.2487 166.206 16.1055C166.006 15.9622 165.73 15.8906 165.379 15.8906C164.999 15.8906 164.695 15.9837 164.466 16.1699C164.244 16.349 164.079 16.5996 163.972 16.9219C163.871 17.237 163.8 17.5986 163.757 18.0068L163.8 18.0605ZM175.122 25L172.641 15.9229L171.147 15.5898V13.377H177.271V15.5791L176.175 15.8154L176.927 19.543L177.045 20.1338H177.109L177.292 19.543L179.58 13.377H181.89L184.146 19.7041L184.307 20.2197H184.371L184.511 19.7041L185.553 15.8369L184.264 15.5791V13.377H190.269V15.5898L188.872 15.9014L185.95 25H182.921L180.934 20.0049L180.665 19.0918H180.601L180.343 20.0156L178.506 25H175.122ZM191.171 29.4688V27.2559L192.61 26.9121V15.9336L190.978 15.5898V13.377H196.145L196.273 14.6875C196.589 14.2005 196.968 13.8245 197.412 13.5596C197.856 13.2946 198.4 13.1621 199.045 13.1621C199.962 13.1621 200.749 13.4163 201.408 13.9248C202.067 14.4261 202.572 15.1315 202.923 16.041C203.281 16.9505 203.46 18.0068 203.46 19.21V19.4355C203.46 20.5957 203.281 21.6126 202.923 22.4863C202.572 23.3529 202.063 24.026 201.397 24.5059C200.731 24.9857 199.929 25.2256 198.991 25.2256C198.418 25.2256 197.913 25.1182 197.477 24.9033C197.047 24.6885 196.674 24.3734 196.359 23.958V26.9121L197.67 27.2559V29.4688H191.171ZM197.874 22.3574C198.554 22.3574 199.027 22.1032 199.292 21.5947C199.557 21.0791 199.689 20.3594 199.689 19.4355V19.21C199.689 18.5726 199.629 18.0176 199.507 17.5449C199.385 17.0723 199.188 16.707 198.916 16.4492C198.651 16.1842 198.297 16.0518 197.853 16.0518C197.53 16.0518 197.237 16.1234 196.972 16.2666C196.714 16.4098 196.51 16.6247 196.359 16.9111V21.6484C196.51 21.8848 196.717 22.0638 196.982 22.1855C197.247 22.3001 197.545 22.3574 197.874 22.3574ZM210.399 25.2256C209.203 25.2256 208.179 24.9785 207.327 24.4844C206.482 23.9831 205.834 23.2884 205.383 22.4004C204.939 21.5052 204.717 20.4704 204.717 19.2959V19.0811C204.717 17.9209 204.939 16.8968 205.383 16.0088C205.834 15.1208 206.482 14.4261 207.327 13.9248C208.172 13.4163 209.189 13.1621 210.378 13.1621C211.574 13.1621 212.591 13.4128 213.429 13.9141C214.274 14.4154 214.918 15.11 215.362 15.998C215.813 16.8861 216.039 17.9137 216.039 19.0811V19.2959C216.039 20.4632 215.813 21.4945 215.362 22.3896C214.918 23.2777 214.274 23.9723 213.429 24.4736C212.591 24.9749 211.581 25.2256 210.399 25.2256ZM210.399 22.3574C210.858 22.3574 211.223 22.2357 211.495 21.9922C211.774 21.7415 211.975 21.387 212.097 20.9287C212.226 20.4704 212.29 19.9261 212.29 19.2959V19.0811C212.29 18.4723 212.226 17.9424 212.097 17.4912C211.975 17.0329 211.774 16.6784 211.495 16.4277C211.216 16.1699 210.843 16.041 210.378 16.041C209.92 16.041 209.551 16.1699 209.271 16.4277C208.992 16.6784 208.792 17.0329 208.67 17.4912C208.548 17.9424 208.487 18.4723 208.487 19.0811V19.2959C208.487 19.9333 208.548 20.4811 208.67 20.9395C208.792 21.3978 208.992 21.7487 209.271 21.9922C209.551 22.2357 209.927 22.3574 210.399 22.3574ZM217.683 25V22.7979L219.036 22.4541V15.9336L217.425 15.5898V13.377H222.592L222.678 14.7949L222.699 15.085C222.957 14.4261 223.276 13.9427 223.655 13.6348C224.042 13.3197 224.522 13.1621 225.095 13.1621C225.252 13.1621 225.438 13.1764 225.653 13.2051C225.868 13.2266 226.087 13.2695 226.309 13.334L225.933 16.793L224.321 16.7178C223.949 16.7035 223.655 16.7464 223.44 16.8467C223.233 16.9398 223.021 17.0973 222.807 17.3193V22.4541L224.16 22.7979V25H217.683ZM232.066 25.2471C230.849 25.2471 229.922 24.9248 229.284 24.2803C228.654 23.6286 228.339 22.6009 228.339 21.1973V15.9766H226.889V13.377H228.339V10.5088H232.088V13.377H233.989V15.9766H232.088V21.1865C232.088 21.5661 232.174 21.8311 232.346 21.9814C232.518 22.1318 232.754 22.207 233.055 22.207C233.184 22.207 233.312 22.1999 233.441 22.1855C233.57 22.1712 233.699 22.1533 233.828 22.1318L234.086 24.9463C233.757 25.0394 233.424 25.111 233.087 25.1611C232.757 25.2184 232.417 25.2471 232.066 25.2471Z" fill="#334155"/>
<path d="M82.4154 45V43.7988L83.5727 43.5571V35.7861L82.4154 35.5444V34.3359H83.5727H86.9931C87.9452 34.3359 88.7802 34.5605 89.4979 35.0098C90.2206 35.459 90.7846 36.0767 91.1898 36.8628C91.5951 37.6489 91.7978 38.5522 91.7978 39.5728V39.7705C91.7978 40.7764 91.5976 41.6748 91.1972 42.4658C90.8017 43.252 90.245 43.8721 89.5272 44.3262C88.8144 44.7754 87.9818 45 87.0297 45H82.4154ZM85.5648 43.4692H86.9271C87.5375 43.4692 88.0551 43.3081 88.4799 42.9858C88.9047 42.6636 89.2294 42.2241 89.454 41.6675C89.6835 41.1108 89.7982 40.4785 89.7982 39.7705V39.5581C89.7982 38.8403 89.6835 38.2056 89.454 37.6538C89.2294 37.0972 88.9047 36.6626 88.4799 36.3501C88.0551 36.0327 87.5375 35.874 86.9271 35.874H85.5648V43.4692ZM96.6938 45.1538C95.9419 45.1538 95.2852 44.9878 94.7236 44.6558C94.167 44.3188 93.7349 43.8574 93.4272 43.2715C93.1196 42.6807 92.9658 42.0068 92.9658 41.25V40.9497C92.9658 40.1733 93.1123 39.4824 93.4053 38.877C93.7031 38.2666 94.1182 37.7905 94.6504 37.4487C95.1826 37.1021 95.7978 36.9287 96.4961 36.9287C97.2139 36.9287 97.8169 37.0728 98.3052 37.3608C98.7935 37.644 99.1621 38.0518 99.4111 38.584C99.6602 39.1162 99.7847 39.7559 99.7847 40.5029V41.6089H95.0312L95.0166 41.6528C95.0361 42.0337 95.1216 42.373 95.2729 42.6709C95.4243 42.9639 95.6367 43.1958 95.9102 43.3667C96.1836 43.5376 96.5156 43.623 96.9062 43.623C97.3213 43.623 97.6997 43.5693 98.0415 43.4619C98.3882 43.3545 98.7178 43.1958 99.0303 42.9858L99.6016 44.2236C99.2842 44.4873 98.8813 44.7095 98.3931 44.8901C97.9048 45.0659 97.3384 45.1538 96.6938 45.1538ZM95.0532 40.2539H97.9097V40.0635C97.9097 39.7314 97.8608 39.4434 97.7632 39.1992C97.6655 38.9502 97.5142 38.7573 97.3091 38.6206C97.1089 38.4839 96.8477 38.4155 96.5254 38.4155C96.2324 38.4155 95.981 38.4961 95.771 38.6572C95.561 38.8135 95.395 39.0283 95.2729 39.3018C95.1509 39.5703 95.0703 39.8755 95.0312 40.2173L95.0532 40.2539ZM104.329 45.1538C103.748 45.1538 103.206 45.1001 102.703 44.9927C102.205 44.8804 101.717 44.7168 101.238 44.502L101.216 42.334H102.623L102.901 43.4766C103.091 43.5645 103.292 43.6328 103.502 43.6816C103.712 43.7305 103.948 43.7549 104.212 43.7549C104.715 43.7549 105.069 43.6719 105.274 43.5059C105.484 43.335 105.589 43.1226 105.589 42.8687C105.589 42.6245 105.479 42.4146 105.259 42.2388C105.04 42.0581 104.615 41.9019 103.985 41.77C103.043 41.5698 102.349 41.2695 101.905 40.8691C101.461 40.4639 101.238 39.9463 101.238 39.3164C101.238 38.877 101.351 38.479 101.575 38.1226C101.805 37.7661 102.147 37.4805 102.601 37.2656C103.055 37.0459 103.624 36.936 104.307 36.936C104.908 36.936 105.447 36.9971 105.926 37.1191C106.409 37.2412 106.817 37.3975 107.149 37.5879L107.186 39.6826H105.787L105.56 38.6426C105.418 38.54 105.252 38.4619 105.062 38.4082C104.871 38.3496 104.656 38.3203 104.417 38.3203C104.026 38.3203 103.721 38.4033 103.502 38.5693C103.287 38.7354 103.179 38.9453 103.179 39.1992C103.179 39.3457 103.216 39.48 103.289 39.6021C103.362 39.7241 103.504 39.8389 103.714 39.9463C103.929 40.0488 104.241 40.1465 104.651 40.2393C105.657 40.4688 106.382 40.7739 106.827 41.1548C107.276 41.5356 107.501 42.0532 107.501 42.7075C107.501 43.4302 107.237 44.0186 106.71 44.4727C106.187 44.9268 105.394 45.1538 104.329 45.1538ZM108.617 45V43.7988L109.679 43.5791V38.5034L108.529 38.2837V37.0752H111.672V43.5791L112.734 43.7988V45H108.617ZM109.606 35.3394V33.5742H111.672V35.3394H109.606ZM117.154 48.2007C116.758 48.2007 116.316 48.147 115.828 48.0396C115.34 47.937 114.91 47.793 114.539 47.6074L114.934 46.1719C115.262 46.3184 115.613 46.4331 115.989 46.5161C116.37 46.604 116.726 46.6479 117.058 46.6479C117.649 46.6479 118.081 46.4844 118.355 46.1572C118.628 45.8301 118.765 45.3735 118.765 44.7876V44.2163C118.526 44.519 118.242 44.751 117.915 44.9121C117.588 45.0732 117.212 45.1538 116.787 45.1538C116.143 45.1538 115.589 44.9927 115.125 44.6704C114.661 44.3481 114.304 43.8965 114.055 43.3154C113.811 42.7295 113.689 42.0483 113.689 41.272V41.1182C113.689 40.2832 113.811 39.5508 114.055 38.9209C114.304 38.291 114.656 37.8027 115.11 37.4561C115.569 37.1045 116.118 36.9287 116.758 36.9287C117.237 36.9287 117.649 37.0288 117.996 37.229C118.347 37.4243 118.645 37.7051 118.889 38.0713L119.036 37.0752H120.764V44.7949C120.764 45.4883 120.62 46.0889 120.332 46.5967C120.044 47.1094 119.629 47.5049 119.087 47.7832C118.55 48.0615 117.906 48.2007 117.154 48.2007ZM117.344 43.5938C117.671 43.5938 117.952 43.5254 118.186 43.3887C118.421 43.252 118.614 43.0566 118.765 42.8027V39.3164C118.618 39.0576 118.426 38.855 118.186 38.7085C117.947 38.562 117.669 38.4888 117.351 38.4888C116.966 38.4888 116.648 38.6011 116.399 38.8257C116.155 39.0454 115.974 39.353 115.857 39.7485C115.74 40.1392 115.681 40.5957 115.681 41.1182V41.272C115.681 41.9897 115.811 42.5562 116.07 42.9712C116.333 43.3862 116.758 43.5938 117.344 43.5938ZM120.501 38.54L119.651 37.0752H121.702V38.2837L120.501 38.54ZM122.46 45V43.7988L123.522 43.5791V38.5034L122.379 38.2837V37.0752H125.368L125.463 38.2178C125.726 37.8125 126.054 37.4976 126.444 37.2729C126.84 37.0435 127.287 36.9287 127.785 36.9287C128.58 36.9287 129.203 37.1802 129.652 37.6831C130.106 38.1812 130.333 38.9648 130.333 40.0342V43.5791L131.395 43.7988V45H127.36V43.7988L128.334 43.5791V40.0488C128.334 39.4824 128.222 39.082 127.997 38.8477C127.772 38.6084 127.438 38.4888 126.994 38.4888C126.662 38.4888 126.371 38.562 126.122 38.7085C125.878 38.8501 125.675 39.0527 125.514 39.3164V43.5791L126.452 43.7988V45H122.46ZM134.944 43.9307V40.8325H132.234V39.0967H134.944V36.167H136.855V39.0967H139.543V40.8325H136.855V43.9307H134.944ZM140.55 45V43.7988L141.708 43.5571V35.7861L140.55 35.5444V34.3359H141.708H145.128C146.08 34.3359 146.915 34.5605 147.633 35.0098C148.356 35.459 148.92 36.0767 149.325 36.8628C149.73 37.6489 149.933 38.5522 149.933 39.5728V39.7705C149.933 40.7764 149.733 41.6748 149.332 42.4658C148.937 43.252 148.38 43.8721 147.662 44.3262C146.949 44.7754 146.117 45 145.165 45H140.55ZM143.7 43.4692H145.062C145.672 43.4692 146.19 43.3081 146.615 42.9858C147.04 42.6636 147.364 42.2241 147.589 41.6675C147.818 41.1108 147.933 40.4785 147.933 39.7705V39.5581C147.933 38.8403 147.818 38.2056 147.589 37.6538C147.364 37.0972 147.04 36.6626 146.615 36.3501C146.19 36.0327 145.672 35.874 145.062 35.874H143.7V43.4692ZM154.829 45.1538C154.077 45.1538 153.42 44.9878 152.859 44.6558C152.302 44.3188 151.87 43.8574 151.562 43.2715C151.255 42.6807 151.101 42.0068 151.101 41.25V40.9497C151.101 40.1733 151.247 39.4824 151.54 38.877C151.838 38.2666 152.253 37.7905 152.785 37.4487C153.318 37.1021 153.933 36.9287 154.631 36.9287C155.349 36.9287 155.952 37.0728 156.44 37.3608C156.928 37.644 157.297 38.0518 157.546 38.584C157.795 39.1162 157.92 39.7559 157.92 40.5029V41.6089H153.166L153.152 41.6528C153.171 42.0337 153.257 42.373 153.408 42.6709C153.559 42.9639 153.772 43.1958 154.045 43.3667C154.319 43.5376 154.651 43.623 155.041 43.623C155.456 43.623 155.835 43.5693 156.176 43.4619C156.523 43.3545 156.853 43.1958 157.165 42.9858L157.737 44.2236C157.419 44.4873 157.016 44.7095 156.528 44.8901C156.04 45.0659 155.473 45.1538 154.829 45.1538ZM153.188 40.2539H156.045V40.0635C156.045 39.7314 155.996 39.4434 155.898 39.1992C155.8 38.9502 155.649 38.7573 155.444 38.6206C155.244 38.4839 154.983 38.4155 154.66 38.4155C154.367 38.4155 154.116 38.4961 153.906 38.6572C153.696 38.8135 153.53 39.0283 153.408 39.3018C153.286 39.5703 153.205 39.8755 153.166 40.2173L153.188 40.2539ZM161.937 45L159.454 38.4155L158.604 38.2837V37.0752H162.34V38.2837L161.468 38.4302L162.779 42.2168L162.962 42.8394H163.006L163.219 42.2168L164.596 38.4302L163.607 38.2837V37.0752H167.335V38.2837L166.463 38.4302L163.922 45H161.937ZM171.725 45.1538C170.974 45.1538 170.317 44.9878 169.755 44.6558C169.199 44.3188 168.767 43.8574 168.459 43.2715C168.151 42.6807 167.997 42.0068 167.997 41.25V40.9497C167.997 40.1733 168.144 39.4824 168.437 38.877C168.735 38.2666 169.15 37.7905 169.682 37.4487C170.214 37.1021 170.829 36.9287 171.528 36.9287C172.246 36.9287 172.849 37.0728 173.337 37.3608C173.825 37.644 174.194 38.0518 174.443 38.584C174.692 39.1162 174.816 39.7559 174.816 40.5029V41.6089H170.063L170.048 41.6528C170.068 42.0337 170.153 42.373 170.305 42.6709C170.456 42.9639 170.668 43.1958 170.942 43.3667C171.215 43.5376 171.547 43.623 171.938 43.623C172.353 43.623 172.731 43.5693 173.073 43.4619C173.42 43.3545 173.749 43.1958 174.062 42.9858L174.633 44.2236C174.316 44.4873 173.913 44.7095 173.425 44.8901C172.936 45.0659 172.37 45.1538 171.725 45.1538ZM170.085 40.2539H172.941V40.0635C172.941 39.7314 172.892 39.4434 172.795 39.1992C172.697 38.9502 172.546 38.7573 172.341 38.6206C172.141 38.4839 171.879 38.4155 171.557 38.4155C171.264 38.4155 171.013 38.4961 170.803 38.6572C170.593 38.8135 170.427 39.0283 170.305 39.3018C170.183 39.5703 170.102 39.8755 170.063 40.2173L170.085 40.2539ZM175.875 45V43.7988L176.944 43.5791V35.0024L175.794 34.7827V33.5742H178.936V43.5791L180.005 43.7988V45H175.875ZM184.521 45.1538C183.744 45.1538 183.08 44.9829 182.528 44.6411C181.977 44.2993 181.552 43.8257 181.254 43.2202C180.956 42.6099 180.807 41.9092 180.807 41.1182V40.9644C180.807 40.1782 180.956 39.4824 181.254 38.877C181.552 38.2715 181.977 37.7954 182.528 37.4487C183.08 37.1021 183.739 36.9287 184.506 36.9287C185.277 36.9287 185.939 37.1021 186.491 37.4487C187.043 37.7905 187.465 38.2642 187.758 38.8696C188.056 39.4751 188.205 40.1733 188.205 40.9644V41.1182C188.205 41.9092 188.056 42.6099 187.758 43.2202C187.465 43.8257 187.043 44.2993 186.491 44.6411C185.939 44.9829 185.282 45.1538 184.521 45.1538ZM184.521 43.623C184.906 43.623 185.224 43.5181 185.473 43.3081C185.727 43.0981 185.915 42.8052 186.037 42.4292C186.159 42.0483 186.22 41.6113 186.22 41.1182V40.9644C186.22 40.4761 186.159 40.0439 186.037 39.668C185.915 39.292 185.727 38.999 185.473 38.7891C185.219 38.5742 184.897 38.4668 184.506 38.4668C184.115 38.4668 183.793 38.5742 183.539 38.7891C183.29 38.999 183.105 39.292 182.983 39.668C182.86 40.0439 182.799 40.4761 182.799 40.9644V41.1182C182.799 41.6162 182.86 42.0532 182.983 42.4292C183.105 42.8052 183.293 43.0981 183.546 43.3081C183.8 43.5181 184.125 43.623 184.521 43.623ZM189.248 48.0469V46.8384L190.303 46.6187V38.5034L189.146 38.2837V37.0752H192.112L192.222 38.0054C192.461 37.6587 192.752 37.3926 193.093 37.207C193.435 37.0215 193.841 36.9287 194.309 36.9287C194.949 36.9287 195.496 37.1045 195.95 37.4561C196.409 37.8027 196.76 38.291 197.005 38.9209C197.249 39.5508 197.371 40.2832 197.371 41.1182V41.272C197.371 42.0483 197.249 42.7295 197.005 43.3154C196.76 43.8965 196.409 44.3481 195.95 44.6704C195.496 44.9927 194.946 45.1538 194.302 45.1538C193.862 45.1538 193.477 45.0757 193.145 44.9194C192.813 44.7632 192.527 44.5337 192.288 44.231V46.6187L193.372 46.8384V48.0469H189.248ZM193.701 43.623C194.278 43.623 194.7 43.4106 194.968 42.9858C195.237 42.561 195.371 41.9897 195.371 41.272V41.1182C195.371 40.5957 195.31 40.1392 195.188 39.7485C195.071 39.353 194.888 39.0454 194.639 38.8257C194.39 38.6011 194.072 38.4888 193.687 38.4888C193.369 38.4888 193.091 38.562 192.852 38.7085C192.617 38.8501 192.429 39.0503 192.288 39.3091V42.8613C192.429 43.1055 192.617 43.2935 192.852 43.4253C193.091 43.5571 193.374 43.623 193.701 43.623ZM198.326 45V43.7988L199.396 43.5791V38.5034L198.246 38.2837V37.0752H201.234L201.322 38.1152C201.581 37.7393 201.903 37.4487 202.289 37.2437C202.675 37.0337 203.121 36.9287 203.629 36.9287C204.142 36.9287 204.581 37.0435 204.948 37.2729C205.314 37.5024 205.59 37.8467 205.775 38.3057C206.019 37.876 206.339 37.5391 206.735 37.2949C207.13 37.0508 207.592 36.9287 208.119 36.9287C208.91 36.9287 209.533 37.1973 209.987 37.7344C210.441 38.2715 210.668 39.0869 210.668 40.1807V43.5791L211.737 43.7988V45H207.694V43.7988L208.676 43.5791V40.1733C208.676 39.5435 208.571 39.1064 208.361 38.8623C208.156 38.6133 207.85 38.4888 207.445 38.4888C207.079 38.4888 206.774 38.6011 206.53 38.8257C206.285 39.0503 206.117 39.3384 206.024 39.6899V43.5791L206.954 43.7988V45H203.109V43.7988L204.039 43.5791V40.1733C204.039 39.5679 203.934 39.1357 203.724 38.877C203.514 38.6182 203.207 38.4888 202.802 38.4888C202.47 38.4888 202.186 38.5571 201.952 38.6938C201.718 38.8257 201.527 39.0161 201.381 39.2651V43.5791L202.362 43.7988V45H198.326ZM216.348 45.1538C215.596 45.1538 214.939 44.9878 214.377 44.6558C213.821 44.3188 213.389 43.8574 213.081 43.2715C212.773 42.6807 212.62 42.0068 212.62 41.25V40.9497C212.62 40.1733 212.766 39.4824 213.059 38.877C213.357 38.2666 213.772 37.7905 214.304 37.4487C214.836 37.1021 215.452 36.9287 216.15 36.9287C216.868 36.9287 217.471 37.0728 217.959 37.3608C218.447 37.644 218.816 38.0518 219.065 38.584C219.314 39.1162 219.438 39.7559 219.438 40.5029V41.6089H214.685L214.67 41.6528C214.69 42.0337 214.775 42.373 214.927 42.6709C215.078 42.9639 215.29 43.1958 215.564 43.3667C215.837 43.5376 216.169 43.623 216.56 43.623C216.975 43.623 217.353 43.5693 217.695 43.4619C218.042 43.3545 218.371 43.1958 218.684 42.9858L219.255 44.2236C218.938 44.4873 218.535 44.7095 218.047 44.8901C217.559 45.0659 216.992 45.1538 216.348 45.1538ZM214.707 40.2539H217.563V40.0635C217.563 39.7314 217.515 39.4434 217.417 39.1992C217.319 38.9502 217.168 38.7573 216.963 38.6206C216.763 38.4839 216.501 38.4155 216.179 38.4155C215.886 38.4155 215.635 38.4961 215.425 38.6572C215.215 38.8135 215.049 39.0283 214.927 39.3018C214.805 39.5703 214.724 39.8755 214.685 40.2173L214.707 40.2539ZM220.541 45V43.7988L221.603 43.5791V38.5034L220.46 38.2837V37.0752H223.448L223.543 38.2178C223.807 37.8125 224.134 37.4976 224.525 37.2729C224.92 37.0435 225.367 36.9287 225.865 36.9287C226.661 36.9287 227.284 37.1802 227.733 37.6831C228.187 38.1812 228.414 38.9648 228.414 40.0342V43.5791L229.476 43.7988V45H225.44V43.7988L226.415 43.5791V40.0488C226.415 39.4824 226.302 39.082 226.078 38.8477C225.853 38.6084 225.519 38.4888 225.074 38.4888C224.742 38.4888 224.452 38.562 224.203 38.7085C223.958 38.8501 223.756 39.0527 223.595 39.3164V43.5791L224.532 43.7988V45H220.541ZM233.178 45.1465C232.475 45.1465 231.928 44.9512 231.538 44.5605C231.152 44.165 230.959 43.54 230.959 42.6855V38.4888H229.838V37.0752H230.959V35.1416H232.944V37.0752H234.46V38.4888H232.944V42.6855C232.944 43.0078 233.012 43.2397 233.149 43.3813C233.286 43.5229 233.469 43.5938 233.698 43.5938C233.825 43.5938 233.964 43.584 234.116 43.5645C234.267 43.5449 234.394 43.5254 234.497 43.5059L234.687 44.9194C234.467 44.9829 234.223 45.0366 233.955 45.0806C233.691 45.1245 233.432 45.1465 233.178 45.1465Z" fill="#94A3B8"/>
<path d="M82.0264 68.0625L83.3838 63.7168H83.9795L83.8623 64.5811L82.4805 69H81.8994L82.0264 68.0625ZM81.1133 63.7168L82.2705 68.1113L82.3535 69H81.7432L80.21 63.7168H81.1133ZM85.2783 68.0771L86.3818 63.7168H87.2803L85.7471 69H85.1416L85.2783 68.0771ZM84.1113 63.7168L85.4395 67.9893L85.5908 69H85.0146L83.5938 64.5713L83.4766 63.7168H84.1113ZM89.5459 68.0625L90.9033 63.7168H91.499L91.3818 64.5811L90 69H89.4189L89.5459 68.0625ZM88.6328 63.7168L89.79 68.1113L89.873 69H89.2627L87.7295 63.7168H88.6328ZM92.7979 68.0771L93.9014 63.7168H94.7998L93.2666 69H92.6611L92.7979 68.0771ZM91.6309 63.7168L92.959 67.9893L93.1104 69H92.5342L91.1133 64.5713L90.9961 63.7168H91.6309ZM97.0654 68.0625L98.4229 63.7168H99.0186L98.9014 64.5811L97.5195 69H96.9385L97.0654 68.0625ZM96.1523 63.7168L97.3096 68.1113L97.3926 69H96.7822L95.249 63.7168H96.1523ZM100.317 68.0771L101.421 63.7168H102.319L100.786 69H100.181L100.317 68.0771ZM99.1504 63.7168L100.479 67.9893L100.63 69H100.054L98.6328 64.5713L98.5156 63.7168H99.1504ZM102.656 68.5215C102.656 68.3685 102.703 68.2399 102.798 68.1357C102.896 68.0283 103.035 67.9746 103.218 67.9746C103.4 67.9746 103.538 68.0283 103.633 68.1357C103.73 68.2399 103.779 68.3685 103.779 68.5215C103.779 68.6712 103.73 68.7982 103.633 68.9023C103.538 69.0065 103.4 69.0586 103.218 69.0586C103.035 69.0586 102.896 69.0065 102.798 68.9023C102.703 68.7982 102.656 68.6712 102.656 68.5215ZM106.26 61.5V69H105.352V61.5H106.26ZM108.691 63.7168V69H107.783V63.7168H108.691ZM107.715 62.3154C107.715 62.1689 107.759 62.0452 107.847 61.9443C107.938 61.8434 108.071 61.793 108.247 61.793C108.42 61.793 108.551 61.8434 108.643 61.9443C108.737 62.0452 108.784 62.1689 108.784 62.3154C108.784 62.4554 108.737 62.5758 108.643 62.6768C108.551 62.7744 108.42 62.8232 108.247 62.8232C108.071 62.8232 107.938 62.7744 107.847 62.6768C107.759 62.5758 107.715 62.4554 107.715 62.3154ZM111.045 64.8447V69H110.142V63.7168H110.996L111.045 64.8447ZM110.83 66.1582L110.454 66.1436C110.457 65.7822 110.511 65.4486 110.615 65.1426C110.719 64.8333 110.866 64.5648 111.055 64.3369C111.243 64.109 111.468 63.9333 111.729 63.8096C111.992 63.6826 112.284 63.6191 112.603 63.6191C112.863 63.6191 113.097 63.6549 113.306 63.7266C113.514 63.7949 113.691 63.9056 113.838 64.0586C113.988 64.2116 114.102 64.4102 114.18 64.6543C114.258 64.8952 114.297 65.1898 114.297 65.5381V69H113.389V65.5283C113.389 65.2516 113.348 65.0303 113.267 64.8643C113.185 64.695 113.066 64.5729 112.91 64.498C112.754 64.4199 112.562 64.3809 112.334 64.3809C112.109 64.3809 111.904 64.4281 111.719 64.5225C111.536 64.6169 111.379 64.7471 111.245 64.9131C111.115 65.0791 111.012 65.2695 110.938 65.4844C110.866 65.696 110.83 65.9206 110.83 66.1582ZM116.577 61.5V69H115.669V61.5H116.577ZM119.805 63.7168L117.5 66.1826L116.211 67.5205L116.138 66.5586L117.061 65.4551L118.701 63.7168H119.805ZM118.979 69L117.095 66.4805L117.563 65.6748L120.044 69H118.979ZM123.105 69.0977C122.712 69.0977 122.355 69.0342 122.036 68.9072C121.717 68.777 121.442 68.5947 121.211 68.3604C120.983 68.1227 120.807 67.8428 120.684 67.5205C120.563 67.1982 120.503 66.8451 120.503 66.4609V66.2461C120.503 65.8294 120.566 65.4583 120.693 65.1328C120.82 64.8073 120.993 64.5322 121.211 64.3076C121.429 64.083 121.676 63.9121 121.953 63.7949C122.23 63.6777 122.516 63.6191 122.812 63.6191C123.19 63.6191 123.516 63.6794 123.789 63.7998C124.066 63.917 124.292 64.0846 124.468 64.3027C124.644 64.5176 124.774 64.7715 124.858 65.0645C124.943 65.3574 124.985 65.6764 124.985 66.0215V66.6123H121.04V65.875H124.082V65.748C124.082 65.5104 124.04 65.2874 123.955 65.0791C123.874 64.8675 123.74 64.695 123.555 64.5615C123.369 64.4281 123.122 64.3613 122.812 64.3613C122.607 64.3613 122.419 64.4036 122.246 64.4883C122.074 64.5697 121.925 64.6901 121.802 64.8496C121.678 65.0091 121.582 65.2061 121.514 65.4404C121.445 65.6748 121.411 65.9434 121.411 66.2461V66.4609C121.411 66.7246 121.45 66.972 121.528 67.2031C121.606 67.431 121.719 67.6328 121.865 67.8086C122.015 67.9811 122.197 68.1162 122.412 68.2139C122.627 68.3115 122.873 68.3604 123.149 68.3604C123.449 68.3604 123.713 68.3164 123.94 68.2285C124.168 68.1406 124.36 68.0381 124.517 67.9209L124.79 68.541C124.647 68.668 124.438 68.7933 124.165 68.917C123.892 69.0374 123.538 69.0977 123.105 69.0977ZM129.37 67.9746V61.5H130.278V69H129.448L129.37 67.9746ZM125.815 66.417V66.3145C125.815 65.9108 125.864 65.5446 125.962 65.2158C126.063 64.8838 126.204 64.599 126.387 64.3613C126.572 64.1237 126.792 63.9414 127.046 63.8145C127.303 63.6842 127.59 63.6191 127.905 63.6191C128.237 63.6191 128.527 63.6777 128.774 63.7949C129.025 63.9089 129.237 64.0765 129.409 64.2979C129.585 64.516 129.723 64.7796 129.824 65.0889C129.925 65.3981 129.995 65.748 130.034 66.1387V66.5879C129.998 66.9753 129.928 67.3236 129.824 67.6328C129.723 67.9421 129.585 68.2057 129.409 68.4238C129.237 68.6419 129.025 68.8096 128.774 68.9268C128.524 69.0407 128.231 69.0977 127.896 69.0977C127.586 69.0977 127.303 69.0309 127.046 68.8975C126.792 68.764 126.572 68.5768 126.387 68.3359C126.204 68.0951 126.063 67.8118 125.962 67.4863C125.864 67.1576 125.815 66.8011 125.815 66.417ZM126.724 66.3145V66.417C126.724 66.6807 126.75 66.9281 126.802 67.1592C126.857 67.3903 126.942 67.5938 127.056 67.7695C127.17 67.9453 127.314 68.0837 127.49 68.1846C127.666 68.2822 127.876 68.3311 128.12 68.3311C128.42 68.3311 128.665 68.2676 128.857 68.1406C129.053 68.0137 129.209 67.846 129.326 67.6377C129.443 67.4294 129.535 67.2031 129.6 66.959V65.7822C129.561 65.6032 129.504 65.4307 129.429 65.2646C129.357 65.0954 129.263 64.9456 129.146 64.8154C129.032 64.682 128.89 64.5762 128.721 64.498C128.555 64.4199 128.358 64.3809 128.13 64.3809C127.882 64.3809 127.669 64.4329 127.49 64.5371C127.314 64.638 127.17 64.778 127.056 64.957C126.942 65.1328 126.857 65.3379 126.802 65.5723C126.75 65.8034 126.724 66.0508 126.724 66.3145ZM132.666 63.7168V69H131.758V63.7168H132.666ZM131.689 62.3154C131.689 62.1689 131.733 62.0452 131.821 61.9443C131.912 61.8434 132.046 61.793 132.222 61.793C132.394 61.793 132.526 61.8434 132.617 61.9443C132.712 62.0452 132.759 62.1689 132.759 62.3154C132.759 62.4554 132.712 62.5758 132.617 62.6768C132.526 62.7744 132.394 62.8232 132.222 62.8232C132.046 62.8232 131.912 62.7744 131.821 62.6768C131.733 62.5758 131.689 62.4554 131.689 62.3154ZM135.02 64.8447V69H134.116V63.7168H134.971L135.02 64.8447ZM134.805 66.1582L134.429 66.1436C134.432 65.7822 134.486 65.4486 134.59 65.1426C134.694 64.8333 134.84 64.5648 135.029 64.3369C135.218 64.109 135.443 63.9333 135.703 63.8096C135.967 63.6826 136.258 63.6191 136.577 63.6191C136.838 63.6191 137.072 63.6549 137.28 63.7266C137.489 63.7949 137.666 63.9056 137.812 64.0586C137.962 64.2116 138.076 64.4102 138.154 64.6543C138.232 64.8952 138.271 65.1898 138.271 65.5381V69H137.363V65.5283C137.363 65.2516 137.323 65.0303 137.241 64.8643C137.16 64.695 137.041 64.5729 136.885 64.498C136.729 64.4199 136.536 64.3809 136.309 64.3809C136.084 64.3809 135.879 64.4281 135.693 64.5225C135.511 64.6169 135.353 64.7471 135.22 64.9131C135.09 65.0791 134.987 65.2695 134.912 65.4844C134.84 65.696 134.805 65.9206 134.805 66.1582ZM139.658 68.5215C139.658 68.3685 139.705 68.2399 139.8 68.1357C139.897 68.0283 140.037 67.9746 140.22 67.9746C140.402 67.9746 140.54 68.0283 140.635 68.1357C140.732 68.2399 140.781 68.3685 140.781 68.5215C140.781 68.6712 140.732 68.7982 140.635 68.9023C140.54 69.0065 140.402 69.0586 140.22 69.0586C140.037 69.0586 139.897 69.0065 139.8 68.9023C139.705 68.7982 139.658 68.6712 139.658 68.5215ZM144.395 68.3555C144.609 68.3555 144.808 68.3115 144.99 68.2236C145.173 68.1357 145.322 68.0153 145.439 67.8623C145.557 67.7061 145.623 67.5286 145.64 67.3301H146.499C146.483 67.6426 146.377 67.9339 146.182 68.2041C145.99 68.471 145.737 68.6875 145.425 68.8535C145.112 69.0163 144.769 69.0977 144.395 69.0977C143.997 69.0977 143.651 69.0277 143.354 68.8877C143.062 68.7477 142.817 68.5557 142.622 68.3115C142.43 68.0674 142.285 67.7874 142.188 67.4717C142.093 67.1527 142.046 66.8158 142.046 66.4609V66.2559C142.046 65.901 142.093 65.5658 142.188 65.25C142.285 64.931 142.43 64.6494 142.622 64.4053C142.817 64.1611 143.062 63.9691 143.354 63.8291C143.651 63.6891 143.997 63.6191 144.395 63.6191C144.808 63.6191 145.169 63.7038 145.479 63.873C145.788 64.0391 146.03 64.2669 146.206 64.5566C146.385 64.8431 146.483 65.1686 146.499 65.5332H145.64C145.623 65.3151 145.562 65.1182 145.454 64.9424C145.35 64.7666 145.207 64.6266 145.024 64.5225C144.845 64.415 144.635 64.3613 144.395 64.3613C144.118 64.3613 143.885 64.4167 143.696 64.5273C143.511 64.6348 143.363 64.7812 143.252 64.9668C143.145 65.1491 143.066 65.3525 143.018 65.5771C142.972 65.7985 142.949 66.0247 142.949 66.2559V66.4609C142.949 66.6921 142.972 66.9199 143.018 67.1445C143.063 67.3691 143.14 67.5726 143.247 67.7549C143.358 67.9372 143.506 68.0837 143.691 68.1943C143.88 68.3018 144.115 68.3555 144.395 68.3555ZM147.275 66.417V66.3047C147.275 65.9238 147.331 65.5706 147.441 65.2451C147.552 64.9163 147.712 64.6315 147.92 64.3906C148.128 64.1465 148.381 63.9577 148.677 63.8242C148.973 63.6875 149.305 63.6191 149.673 63.6191C150.044 63.6191 150.378 63.6875 150.674 63.8242C150.973 63.9577 151.227 64.1465 151.436 64.3906C151.647 64.6315 151.808 64.9163 151.919 65.2451C152.03 65.5706 152.085 65.9238 152.085 66.3047V66.417C152.085 66.7979 152.03 67.151 151.919 67.4766C151.808 67.8021 151.647 68.0869 151.436 68.3311C151.227 68.5719 150.975 68.7607 150.679 68.8975C150.386 69.0309 150.054 69.0977 149.683 69.0977C149.312 69.0977 148.978 69.0309 148.682 68.8975C148.385 68.7607 148.132 68.5719 147.92 68.3311C147.712 68.0869 147.552 67.8021 147.441 67.4766C147.331 67.151 147.275 66.7979 147.275 66.417ZM148.179 66.3047V66.417C148.179 66.6807 148.21 66.9297 148.271 67.1641C148.333 67.3952 148.426 67.6003 148.55 67.7793C148.677 67.9583 148.835 68.0999 149.023 68.2041C149.212 68.305 149.432 68.3555 149.683 68.3555C149.93 68.3555 150.146 68.305 150.332 68.2041C150.521 68.0999 150.677 67.9583 150.801 67.7793C150.924 67.6003 151.017 67.3952 151.079 67.1641C151.144 66.9297 151.177 66.6807 151.177 66.417V66.3047C151.177 66.0443 151.144 65.7985 151.079 65.5674C151.017 65.333 150.923 65.1263 150.796 64.9473C150.672 64.765 150.516 64.6217 150.327 64.5176C150.142 64.4134 149.924 64.3613 149.673 64.3613C149.425 64.3613 149.207 64.4134 149.019 64.5176C148.833 64.6217 148.677 64.765 148.55 64.9473C148.426 65.1263 148.333 65.333 148.271 65.5674C148.21 65.7985 148.179 66.0443 148.179 66.3047ZM154.116 64.7666V69H153.208V63.7168H154.067L154.116 64.7666ZM153.931 66.1582L153.511 66.1436C153.514 65.7822 153.561 65.4486 153.652 65.1426C153.743 64.8333 153.879 64.5648 154.058 64.3369C154.237 64.109 154.46 63.9333 154.727 63.8096C154.993 63.6826 155.303 63.6191 155.654 63.6191C155.902 63.6191 156.13 63.6549 156.338 63.7266C156.546 63.7949 156.727 63.904 156.88 64.0537C157.033 64.2035 157.152 64.3955 157.236 64.6299C157.321 64.8643 157.363 65.1475 157.363 65.4795V69H156.46V65.5234C156.46 65.2467 156.413 65.0254 156.318 64.8594C156.227 64.6934 156.097 64.5729 155.928 64.498C155.758 64.4199 155.56 64.3809 155.332 64.3809C155.065 64.3809 154.842 64.4281 154.663 64.5225C154.484 64.6169 154.341 64.7471 154.233 64.9131C154.126 65.0791 154.048 65.2695 153.999 65.4844C153.953 65.696 153.931 65.9206 153.931 66.1582ZM157.354 65.6602L156.748 65.8457C156.751 65.556 156.799 65.2777 156.89 65.0107C156.984 64.7438 157.119 64.5062 157.295 64.2979C157.474 64.0895 157.694 63.9251 157.954 63.8047C158.215 63.681 158.512 63.6191 158.848 63.6191C159.131 63.6191 159.382 63.6566 159.6 63.7314C159.821 63.8063 160.007 63.9219 160.156 64.0781C160.309 64.2311 160.425 64.4281 160.503 64.6689C160.581 64.9098 160.62 65.1963 160.62 65.5283V69H159.712V65.5186C159.712 65.2223 159.665 64.9928 159.57 64.8301C159.479 64.6641 159.349 64.5485 159.18 64.4834C159.014 64.415 158.815 64.3809 158.584 64.3809C158.385 64.3809 158.21 64.415 158.057 64.4834C157.904 64.5518 157.775 64.6462 157.671 64.7666C157.567 64.8838 157.487 65.0189 157.432 65.1719C157.38 65.3249 157.354 65.4876 157.354 65.6602ZM165.132 61.8906L162.168 69.6104H161.392L164.36 61.8906H165.132ZM167.1 63.7168V69H166.191V63.7168H167.1ZM166.123 62.3154C166.123 62.1689 166.167 62.0452 166.255 61.9443C166.346 61.8434 166.479 61.793 166.655 61.793C166.828 61.793 166.96 61.8434 167.051 61.9443C167.145 62.0452 167.192 62.1689 167.192 62.3154C167.192 62.4554 167.145 62.5758 167.051 62.6768C166.96 62.7744 166.828 62.8232 166.655 62.8232C166.479 62.8232 166.346 62.7744 166.255 62.6768C166.167 62.5758 166.123 62.4554 166.123 62.3154ZM169.453 64.8447V69H168.55V63.7168H169.404L169.453 64.8447ZM169.238 66.1582L168.862 66.1436C168.866 65.7822 168.919 65.4486 169.023 65.1426C169.128 64.8333 169.274 64.5648 169.463 64.3369C169.652 64.109 169.876 63.9333 170.137 63.8096C170.4 63.6826 170.692 63.6191 171.011 63.6191C171.271 63.6191 171.506 63.6549 171.714 63.7266C171.922 63.7949 172.1 63.9056 172.246 64.0586C172.396 64.2116 172.51 64.4102 172.588 64.6543C172.666 64.8952 172.705 65.1898 172.705 65.5381V69H171.797V65.5283C171.797 65.2516 171.756 65.0303 171.675 64.8643C171.593 64.695 171.475 64.5729 171.318 64.498C171.162 64.4199 170.97 64.3809 170.742 64.3809C170.518 64.3809 170.312 64.4281 170.127 64.5225C169.945 64.6169 169.787 64.7471 169.653 64.9131C169.523 65.0791 169.421 65.2695 169.346 65.4844C169.274 65.696 169.238 65.9206 169.238 66.1582ZM177.222 61.8906L174.258 69.6104H173.481L176.45 61.8906H177.222ZM179.106 64.7666V69H178.198V63.7168H179.058L179.106 64.7666ZM178.921 66.1582L178.501 66.1436C178.504 65.7822 178.551 65.4486 178.643 65.1426C178.734 64.8333 178.869 64.5648 179.048 64.3369C179.227 64.109 179.45 63.9333 179.717 63.8096C179.984 63.6826 180.293 63.6191 180.645 63.6191C180.892 63.6191 181.12 63.6549 181.328 63.7266C181.536 63.7949 181.717 63.904 181.87 64.0537C182.023 64.2035 182.142 64.3955 182.227 64.6299C182.311 64.8643 182.354 65.1475 182.354 65.4795V69H181.45V65.5234C181.45 65.2467 181.403 65.0254 181.309 64.8594C181.217 64.6934 181.087 64.5729 180.918 64.498C180.749 64.4199 180.55 64.3809 180.322 64.3809C180.055 64.3809 179.832 64.4281 179.653 64.5225C179.474 64.6169 179.331 64.7471 179.224 64.9131C179.116 65.0791 179.038 65.2695 178.989 65.4844C178.944 65.696 178.921 65.9206 178.921 66.1582ZM182.344 65.6602L181.738 65.8457C181.742 65.556 181.789 65.2777 181.88 65.0107C181.974 64.7438 182.109 64.5062 182.285 64.2979C182.464 64.0895 182.684 63.9251 182.944 63.8047C183.205 63.681 183.503 63.6191 183.838 63.6191C184.121 63.6191 184.372 63.6566 184.59 63.7314C184.811 63.8063 184.997 63.9219 185.146 64.0781C185.299 64.2311 185.415 64.4281 185.493 64.6689C185.571 64.9098 185.61 65.1963 185.61 65.5283V69H184.702V65.5186C184.702 65.2223 184.655 64.9928 184.561 64.8301C184.469 64.6641 184.339 64.5485 184.17 64.4834C184.004 64.415 183.805 64.3809 183.574 64.3809C183.376 64.3809 183.2 64.415 183.047 64.4834C182.894 64.5518 182.765 64.6462 182.661 64.7666C182.557 64.8838 182.477 65.0189 182.422 65.1719C182.37 65.3249 182.344 65.4876 182.344 65.6602ZM190.093 68.0967V65.377C190.093 65.1686 190.05 64.988 189.966 64.835C189.884 64.6787 189.761 64.5583 189.595 64.4736C189.429 64.389 189.224 64.3467 188.979 64.3467C188.752 64.3467 188.551 64.3857 188.379 64.4639C188.21 64.542 188.076 64.6445 187.979 64.7715C187.884 64.8984 187.837 65.0352 187.837 65.1816H186.934C186.934 64.9928 186.982 64.8057 187.08 64.6201C187.178 64.4346 187.318 64.2669 187.5 64.1172C187.686 63.9642 187.907 63.8438 188.164 63.7559C188.424 63.6647 188.714 63.6191 189.033 63.6191C189.417 63.6191 189.756 63.6842 190.049 63.8145C190.345 63.9447 190.576 64.1416 190.742 64.4053C190.911 64.6657 190.996 64.9928 190.996 65.3867V67.8477C190.996 68.0234 191.011 68.2106 191.04 68.4092C191.073 68.6077 191.12 68.7786 191.182 68.9219V69H190.239C190.194 68.8958 190.158 68.7575 190.132 68.585C190.106 68.4092 190.093 68.2464 190.093 68.0967ZM190.249 65.7969L190.259 66.4316H189.346C189.089 66.4316 188.859 66.4528 188.657 66.4951C188.455 66.5342 188.286 66.5944 188.149 66.6758C188.013 66.7572 187.909 66.8597 187.837 66.9834C187.765 67.1038 187.729 67.2454 187.729 67.4082C187.729 67.5742 187.767 67.7256 187.842 67.8623C187.917 67.999 188.029 68.1081 188.179 68.1895C188.332 68.2676 188.519 68.3066 188.74 68.3066C189.017 68.3066 189.261 68.248 189.473 68.1309C189.684 68.0137 189.852 67.8704 189.976 67.7012C190.103 67.5319 190.171 67.3675 190.181 67.208L190.566 67.6426C190.544 67.7793 190.482 67.9307 190.381 68.0967C190.28 68.2627 190.145 68.4222 189.976 68.5752C189.81 68.7249 189.611 68.8503 189.38 68.9512C189.152 69.0488 188.895 69.0977 188.608 69.0977C188.25 69.0977 187.936 69.0277 187.666 68.8877C187.399 68.7477 187.191 68.5605 187.041 68.3262C186.895 68.0885 186.821 67.8232 186.821 67.5303C186.821 67.2471 186.877 66.998 186.987 66.7832C187.098 66.5651 187.257 66.3844 187.466 66.2412C187.674 66.0947 187.925 65.984 188.218 65.9092C188.511 65.8343 188.838 65.7969 189.199 65.7969H190.249ZM193.32 64.5469V69H192.417V63.7168H193.296L193.32 64.5469ZM194.971 63.6875L194.966 64.5273C194.891 64.5111 194.819 64.5013 194.751 64.498C194.686 64.4915 194.611 64.4883 194.526 64.4883C194.318 64.4883 194.134 64.5208 193.975 64.5859C193.815 64.651 193.68 64.7422 193.569 64.8594C193.459 64.9766 193.371 65.1165 193.306 65.2793C193.244 65.4388 193.203 65.6146 193.184 65.8066L192.93 65.9531C192.93 65.6341 192.961 65.3346 193.022 65.0547C193.088 64.7747 193.187 64.5273 193.32 64.3125C193.454 64.0944 193.623 63.9251 193.828 63.8047C194.036 63.681 194.284 63.6191 194.57 63.6191C194.635 63.6191 194.71 63.6273 194.795 63.6436C194.88 63.6566 194.938 63.6712 194.971 63.6875ZM197.822 68.3555C198.037 68.3555 198.236 68.3115 198.418 68.2236C198.6 68.1357 198.75 68.0153 198.867 67.8623C198.984 67.7061 199.051 67.5286 199.067 67.3301H199.927C199.91 67.6426 199.805 67.9339 199.609 68.2041C199.417 68.471 199.165 68.6875 198.853 68.8535C198.54 69.0163 198.197 69.0977 197.822 69.0977C197.425 69.0977 197.078 69.0277 196.782 68.8877C196.489 68.7477 196.245 68.5557 196.05 68.3115C195.858 68.0674 195.713 67.7874 195.615 67.4717C195.521 67.1527 195.474 66.8158 195.474 66.4609V66.2559C195.474 65.901 195.521 65.5658 195.615 65.25C195.713 64.931 195.858 64.6494 196.05 64.4053C196.245 64.1611 196.489 63.9691 196.782 63.8291C197.078 63.6891 197.425 63.6191 197.822 63.6191C198.236 63.6191 198.597 63.7038 198.906 63.873C199.215 64.0391 199.458 64.2669 199.634 64.5566C199.813 64.8431 199.91 65.1686 199.927 65.5332H199.067C199.051 65.3151 198.989 65.1182 198.882 64.9424C198.778 64.7666 198.634 64.6266 198.452 64.5225C198.273 64.415 198.063 64.3613 197.822 64.3613C197.546 64.3613 197.313 64.4167 197.124 64.5273C196.938 64.6348 196.79 64.7812 196.68 64.9668C196.572 65.1491 196.494 65.3525 196.445 65.5771C196.4 65.7985 196.377 66.0247 196.377 66.2559V66.4609C196.377 66.6921 196.4 66.9199 196.445 67.1445C196.491 67.3691 196.567 67.5726 196.675 67.7549C196.785 67.9372 196.934 68.0837 197.119 68.1943C197.308 68.3018 197.542 68.3555 197.822 68.3555ZM201.846 64.8447V69H200.942V63.7168H201.797L201.846 64.8447ZM201.631 66.1582L201.255 66.1436C201.258 65.7822 201.312 65.4486 201.416 65.1426C201.52 64.8333 201.667 64.5648 201.855 64.3369C202.044 64.109 202.269 63.9333 202.529 63.8096C202.793 63.6826 203.084 63.6191 203.403 63.6191C203.664 63.6191 203.898 63.6549 204.106 63.7266C204.315 63.7949 204.492 63.9056 204.639 64.0586C204.788 64.2116 204.902 64.4102 204.98 64.6543C205.059 64.8952 205.098 65.1898 205.098 65.5381V69H204.189V65.5283C204.189 65.2516 204.149 65.0303 204.067 64.8643C203.986 64.695 203.867 64.5729 203.711 64.498C203.555 64.4199 203.363 64.3809 203.135 64.3809C202.91 64.3809 202.705 64.4281 202.52 64.5225C202.337 64.6169 202.179 64.7471 202.046 64.9131C201.916 65.0791 201.813 65.2695 201.738 65.4844C201.667 65.696 201.631 65.9206 201.631 66.1582ZM208.838 69.0977C208.444 69.0977 208.088 69.0342 207.769 68.9072C207.45 68.777 207.174 68.5947 206.943 68.3604C206.715 68.1227 206.54 67.8428 206.416 67.5205C206.296 67.1982 206.235 66.8451 206.235 66.4609V66.2461C206.235 65.8294 206.299 65.4583 206.426 65.1328C206.553 64.8073 206.725 64.5322 206.943 64.3076C207.161 64.083 207.409 63.9121 207.686 63.7949C207.962 63.6777 208.249 63.6191 208.545 63.6191C208.923 63.6191 209.248 63.6794 209.521 63.7998C209.798 63.917 210.024 64.0846 210.2 64.3027C210.376 64.5176 210.506 64.7715 210.591 65.0645C210.675 65.3574 210.718 65.6764 210.718 66.0215V66.6123H206.772V65.875H209.814V65.748C209.814 65.5104 209.772 65.2874 209.688 65.0791C209.606 64.8675 209.473 64.695 209.287 64.5615C209.102 64.4281 208.854 64.3613 208.545 64.3613C208.34 64.3613 208.151 64.4036 207.979 64.4883C207.806 64.5697 207.658 64.6901 207.534 64.8496C207.41 65.0091 207.314 65.2061 207.246 65.4404C207.178 65.6748 207.144 65.9434 207.144 66.2461V66.4609C207.144 66.7246 207.183 66.972 207.261 67.2031C207.339 67.431 207.451 67.6328 207.598 67.8086C207.747 67.9811 207.93 68.1162 208.145 68.2139C208.359 68.3115 208.605 68.3604 208.882 68.3604C209.181 68.3604 209.445 68.3164 209.673 68.2285C209.901 68.1406 210.093 68.0381 210.249 67.9209L210.522 68.541C210.379 68.668 210.171 68.7933 209.897 68.917C209.624 69.0374 209.271 69.0977 208.838 69.0977ZM213.11 68.0625L214.468 63.7168H215.063L214.946 64.5811L213.564 69H212.983L213.11 68.0625ZM212.197 63.7168L213.354 68.1113L213.438 69H212.827L211.294 63.7168H212.197ZM216.362 68.0771L217.466 63.7168H218.364L216.831 69H216.226L216.362 68.0771ZM215.195 63.7168L216.523 67.9893L216.675 69H216.099L214.678 64.5713L214.561 63.7168H215.195ZM220.195 64.7324V71.0312H219.287V63.7168H220.117L220.195 64.7324ZM223.755 66.3145V66.417C223.755 66.8011 223.709 67.1576 223.618 67.4863C223.527 67.8118 223.394 68.0951 223.218 68.3359C223.045 68.5768 222.832 68.764 222.578 68.8975C222.324 69.0309 222.033 69.0977 221.704 69.0977C221.369 69.0977 221.073 69.0423 220.815 68.9316C220.558 68.821 220.34 68.6598 220.161 68.4482C219.982 68.2367 219.839 67.9827 219.731 67.6865C219.627 67.3903 219.556 67.0566 219.517 66.6855V66.1387C219.556 65.748 219.629 65.3981 219.736 65.0889C219.844 64.7796 219.985 64.516 220.161 64.2979C220.34 64.0765 220.557 63.9089 220.811 63.7949C221.064 63.6777 221.357 63.6191 221.689 63.6191C222.021 63.6191 222.316 63.6842 222.573 63.8145C222.83 63.9414 223.047 64.1237 223.223 64.3613C223.398 64.599 223.53 64.8838 223.618 65.2158C223.709 65.5446 223.755 65.9108 223.755 66.3145ZM222.847 66.417V66.3145C222.847 66.0508 222.819 65.8034 222.764 65.5723C222.708 65.3379 222.622 65.1328 222.505 64.957C222.391 64.778 222.244 64.638 222.065 64.5371C221.886 64.4329 221.673 64.3809 221.426 64.3809C221.198 64.3809 220.999 64.4199 220.83 64.498C220.664 64.5762 220.522 64.682 220.405 64.8154C220.288 64.9456 220.192 65.0954 220.117 65.2646C220.046 65.4307 219.992 65.6032 219.956 65.7822V67.0469C220.021 67.2747 220.112 67.4896 220.229 67.6914C220.347 67.89 220.503 68.0511 220.698 68.1748C220.894 68.2952 221.139 68.3555 221.436 68.3555C221.68 68.3555 221.89 68.305 222.065 68.2041C222.244 68.0999 222.391 67.9583 222.505 67.7793C222.622 67.6003 222.708 67.3952 222.764 67.1641C222.819 66.9297 222.847 66.6807 222.847 66.417ZM224.668 66.417V66.3047C224.668 65.9238 224.723 65.5706 224.834 65.2451C224.945 64.9163 225.104 64.6315 225.312 64.3906C225.521 64.1465 225.773 63.9577 226.069 63.8242C226.366 63.6875 226.698 63.6191 227.065 63.6191C227.437 63.6191 227.77 63.6875 228.066 63.8242C228.366 63.9577 228.62 64.1465 228.828 64.3906C229.04 64.6315 229.201 64.9163 229.312 65.2451C229.422 65.5706 229.478 65.9238 229.478 66.3047V66.417C229.478 66.7979 229.422 67.151 229.312 67.4766C229.201 67.8021 229.04 68.0869 228.828 68.3311C228.62 68.5719 228.368 68.7607 228.071 68.8975C227.778 69.0309 227.446 69.0977 227.075 69.0977C226.704 69.0977 226.37 69.0309 226.074 68.8975C225.778 68.7607 225.524 68.5719 225.312 68.3311C225.104 68.0869 224.945 67.8021 224.834 67.4766C224.723 67.151 224.668 66.7979 224.668 66.417ZM225.571 66.3047V66.417C225.571 66.6807 225.602 66.9297 225.664 67.1641C225.726 67.3952 225.819 67.6003 225.942 67.7793C226.069 67.9583 226.227 68.0999 226.416 68.2041C226.605 68.305 226.825 68.3555 227.075 68.3555C227.323 68.3555 227.539 68.305 227.725 68.2041C227.913 68.0999 228.07 67.9583 228.193 67.7793C228.317 67.6003 228.41 67.3952 228.472 67.1641C228.537 66.9297 228.569 66.6807 228.569 66.417V66.3047C228.569 66.0443 228.537 65.7985 228.472 65.5674C228.41 65.333 228.315 65.1263 228.188 64.9473C228.065 64.765 227.909 64.6217 227.72 64.5176C227.534 64.4134 227.316 64.3613 227.065 64.3613C226.818 64.3613 226.6 64.4134 226.411 64.5176C226.226 64.6217 226.069 64.765 225.942 64.9473C225.819 65.1263 225.726 65.333 225.664 65.5674C225.602 65.7985 225.571 66.0443 225.571 66.3047ZM231.514 64.5469V69H230.61V63.7168H231.489L231.514 64.5469ZM233.164 63.6875L233.159 64.5273C233.084 64.5111 233.013 64.5013 232.944 64.498C232.879 64.4915 232.804 64.4883 232.72 64.4883C232.511 64.4883 232.327 64.5208 232.168 64.5859C232.008 64.651 231.873 64.7422 231.763 64.8594C231.652 64.9766 231.564 65.1165 231.499 65.2793C231.437 65.4388 231.396 65.6146 231.377 65.8066L231.123 65.9531C231.123 65.6341 231.154 65.3346 231.216 65.0547C231.281 64.7747 231.38 64.5273 231.514 64.3125C231.647 64.0944 231.816 63.9251 232.021 63.8047C232.23 63.681 232.477 63.6191 232.764 63.6191C232.829 63.6191 232.904 63.6273 232.988 63.6436C233.073 63.6566 233.132 63.6712 233.164 63.6875ZM236.455 63.7168V64.4102H233.599V63.7168H236.455ZM234.565 62.4326H235.469V67.6914C235.469 67.8704 235.496 68.0055 235.552 68.0967C235.607 68.1878 235.679 68.248 235.767 68.2773C235.854 68.3066 235.949 68.3213 236.05 68.3213C236.125 68.3213 236.203 68.3148 236.284 68.3018C236.369 68.2855 236.432 68.2725 236.475 68.2627L236.479 69C236.408 69.0228 236.313 69.0439 236.196 69.0635C236.082 69.0863 235.944 69.0977 235.781 69.0977C235.56 69.0977 235.356 69.0537 235.171 68.9658C234.985 68.8779 234.837 68.7314 234.727 68.5264C234.619 68.318 234.565 68.0381 234.565 67.6865V62.4326Z" fill="#334155"/>
<path d="M81.5869 79.7666V84H80.6787V78.7168H81.5381L81.5869 79.7666ZM81.4014 81.1582L80.9814 81.1436C80.9847 80.7822 81.0319 80.4486 81.123 80.1426C81.2142 79.8333 81.3493 79.5648 81.5283 79.3369C81.7074 79.109 81.9303 78.9333 82.1973 78.8096C82.4642 78.6826 82.7734 78.6191 83.125 78.6191C83.3724 78.6191 83.6003 78.6549 83.8086 78.7266C84.0169 78.7949 84.1976 78.904 84.3506 79.0537C84.5036 79.2035 84.6224 79.3955 84.707 79.6299C84.7917 79.8643 84.834 80.1475 84.834 80.4795V84H83.9307V80.5234C83.9307 80.2467 83.8835 80.0254 83.7891 79.8594C83.6979 79.6934 83.5677 79.5729 83.3984 79.498C83.2292 79.4199 83.0306 79.3809 82.8027 79.3809C82.5358 79.3809 82.3128 79.4281 82.1338 79.5225C81.9548 79.6169 81.8115 79.7471 81.7041 79.9131C81.5967 80.0791 81.5186 80.2695 81.4697 80.4844C81.4242 80.696 81.4014 80.9206 81.4014 81.1582ZM84.8242 80.6602L84.2188 80.8457C84.222 80.556 84.2692 80.2777 84.3604 80.0107C84.4548 79.7438 84.5898 79.5062 84.7656 79.2979C84.9447 79.0895 85.1644 78.9251 85.4248 78.8047C85.6852 78.681 85.9831 78.6191 86.3184 78.6191C86.6016 78.6191 86.8522 78.6566 87.0703 78.7314C87.2917 78.8063 87.4772 78.9219 87.627 79.0781C87.7799 79.2311 87.8955 79.4281 87.9736 79.6689C88.0518 79.9098 88.0908 80.1963 88.0908 80.5283V84H87.1826V80.5186C87.1826 80.2223 87.1354 79.9928 87.041 79.8301C86.9499 79.6641 86.8197 79.5485 86.6504 79.4834C86.4844 79.415 86.2858 79.3809 86.0547 79.3809C85.8561 79.3809 85.6803 79.415 85.5273 79.4834C85.3743 79.5518 85.2458 79.6462 85.1416 79.7666C85.0374 79.8838 84.9577 80.0189 84.9023 80.1719C84.8503 80.3249 84.8242 80.4876 84.8242 80.6602ZM92.5732 83.0967V80.377C92.5732 80.1686 92.5309 79.988 92.4463 79.835C92.3649 79.6787 92.2412 79.5583 92.0752 79.4736C91.9092 79.389 91.7041 79.3467 91.46 79.3467C91.2321 79.3467 91.0319 79.3857 90.8594 79.4639C90.6901 79.542 90.5566 79.6445 90.459 79.7715C90.3646 79.8984 90.3174 80.0352 90.3174 80.1816H89.4141C89.4141 79.9928 89.4629 79.8057 89.5605 79.6201C89.6582 79.4346 89.7982 79.2669 89.9805 79.1172C90.166 78.9642 90.3874 78.8438 90.6445 78.7559C90.9049 78.6647 91.1947 78.6191 91.5137 78.6191C91.8978 78.6191 92.2363 78.6842 92.5293 78.8145C92.8255 78.9447 93.0566 79.1416 93.2227 79.4053C93.3919 79.6657 93.4766 79.9928 93.4766 80.3867V82.8477C93.4766 83.0234 93.4912 83.2106 93.5205 83.4092C93.5531 83.6077 93.6003 83.7786 93.6621 83.9219V84H92.7197C92.6742 83.8958 92.6383 83.7575 92.6123 83.585C92.5863 83.4092 92.5732 83.2464 92.5732 83.0967ZM92.7295 80.7969L92.7393 81.4316H91.8262C91.569 81.4316 91.3395 81.4528 91.1377 81.4951C90.9359 81.5342 90.7666 81.5944 90.6299 81.6758C90.4932 81.7572 90.389 81.8597 90.3174 81.9834C90.2458 82.1038 90.21 82.2454 90.21 82.4082C90.21 82.5742 90.2474 82.7256 90.3223 82.8623C90.3971 82.999 90.5094 83.1081 90.6592 83.1895C90.8122 83.2676 90.9993 83.3066 91.2207 83.3066C91.4974 83.3066 91.7415 83.248 91.9531 83.1309C92.1647 83.0137 92.3324 82.8704 92.4561 82.7012C92.583 82.5319 92.6514 82.3675 92.6611 82.208L93.0469 82.6426C93.0241 82.7793 92.9622 82.9307 92.8613 83.0967C92.7604 83.2627 92.6253 83.4222 92.4561 83.5752C92.29 83.7249 92.0915 83.8503 91.8604 83.9512C91.6325 84.0488 91.3753 84.0977 91.0889 84.0977C90.7308 84.0977 90.4167 84.0277 90.1465 83.8877C89.8796 83.7477 89.6712 83.5605 89.5215 83.3262C89.375 83.0885 89.3018 82.8232 89.3018 82.5303C89.3018 82.2471 89.3571 81.998 89.4678 81.7832C89.5785 81.5651 89.738 81.3844 89.9463 81.2412C90.1546 81.0947 90.4053 80.984 90.6982 80.9092C90.9912 80.8343 91.3184 80.7969 91.6797 80.7969H92.7295ZM95.8008 79.5469V84H94.8975V78.7168H95.7764L95.8008 79.5469ZM97.4512 78.6875L97.4463 79.5273C97.3714 79.5111 97.2998 79.5013 97.2314 79.498C97.1663 79.4915 97.0915 79.4883 97.0068 79.4883C96.7985 79.4883 96.6146 79.5208 96.4551 79.5859C96.2956 79.651 96.1605 79.7422 96.0498 79.8594C95.9391 79.9766 95.8512 80.1165 95.7861 80.2793C95.7243 80.4388 95.6836 80.6146 95.6641 80.8066L95.4102 80.9531C95.4102 80.6341 95.4411 80.3346 95.5029 80.0547C95.568 79.7747 95.6673 79.5273 95.8008 79.3125C95.9342 79.0944 96.1035 78.9251 96.3086 78.8047C96.5169 78.681 96.7643 78.6191 97.0508 78.6191C97.1159 78.6191 97.1908 78.6273 97.2754 78.6436C97.36 78.6566 97.4186 78.6712 97.4512 78.6875ZM100.303 83.3555C100.518 83.3555 100.716 83.3115 100.898 83.2236C101.081 83.1357 101.23 83.0153 101.348 82.8623C101.465 82.7061 101.532 82.5286 101.548 82.3301H102.407C102.391 82.6426 102.285 82.9339 102.09 83.2041C101.898 83.471 101.646 83.6875 101.333 83.8535C101.021 84.0163 100.677 84.0977 100.303 84.0977C99.9056 84.0977 99.5589 84.0277 99.2627 83.8877C98.9697 83.7477 98.7256 83.5557 98.5303 83.3115C98.3382 83.0674 98.1934 82.7874 98.0957 82.4717C98.0013 82.1527 97.9541 81.8158 97.9541 81.4609V81.2559C97.9541 80.901 98.0013 80.5658 98.0957 80.25C98.1934 79.931 98.3382 79.6494 98.5303 79.4053C98.7256 79.1611 98.9697 78.9691 99.2627 78.8291C99.5589 78.6891 99.9056 78.6191 100.303 78.6191C100.716 78.6191 101.077 78.7038 101.387 78.873C101.696 79.0391 101.938 79.2669 102.114 79.5566C102.293 79.8431 102.391 80.1686 102.407 80.5332H101.548C101.532 80.3151 101.47 80.1182 101.362 79.9424C101.258 79.7666 101.115 79.6266 100.933 79.5225C100.754 79.415 100.544 79.3613 100.303 79.3613C100.026 79.3613 99.7933 79.4167 99.6045 79.5273C99.4189 79.6348 99.2708 79.7812 99.1602 79.9668C99.0527 80.1491 98.9746 80.3525 98.9258 80.5771C98.8802 80.7985 98.8574 81.0247 98.8574 81.2559V81.4609C98.8574 81.6921 98.8802 81.9199 98.9258 82.1445C98.9714 82.3691 99.0479 82.5726 99.1553 82.7549C99.266 82.9372 99.4141 83.0837 99.5996 83.1943C99.7884 83.3018 100.023 83.3555 100.303 83.3555ZM104.326 79.8447V84H103.423V78.7168H104.277L104.326 79.8447ZM104.111 81.1582L103.735 81.1436C103.739 80.7822 103.792 80.4486 103.896 80.1426C104.001 79.8333 104.147 79.5648 104.336 79.3369C104.525 79.109 104.749 78.9333 105.01 78.8096C105.273 78.6826 105.565 78.6191 105.884 78.6191C106.144 78.6191 106.379 78.6549 106.587 78.7266C106.795 78.7949 106.973 78.9056 107.119 79.0586C107.269 79.2116 107.383 79.4102 107.461 79.6543C107.539 79.8952 107.578 80.1898 107.578 80.5381V84H106.67V80.5283C106.67 80.2516 106.629 80.0303 106.548 79.8643C106.466 79.695 106.348 79.5729 106.191 79.498C106.035 79.4199 105.843 79.3809 105.615 79.3809C105.391 79.3809 105.186 79.4281 105 79.5225C104.818 79.6169 104.66 79.7471 104.526 79.9131C104.396 80.0791 104.294 80.2695 104.219 80.4844C104.147 80.696 104.111 80.9206 104.111 81.1582ZM111.318 84.0977C110.924 84.0977 110.568 84.0342 110.249 83.9072C109.93 83.777 109.655 83.5947 109.424 83.3604C109.196 83.1227 109.02 82.8428 108.896 82.5205C108.776 82.1982 108.716 81.8451 108.716 81.4609V81.2461C108.716 80.8294 108.779 80.4583 108.906 80.1328C109.033 79.8073 109.206 79.5322 109.424 79.3076C109.642 79.083 109.889 78.9121 110.166 78.7949C110.443 78.6777 110.729 78.6191 111.025 78.6191C111.403 78.6191 111.729 78.6794 112.002 78.7998C112.279 78.917 112.505 79.0846 112.681 79.3027C112.856 79.5176 112.987 79.7715 113.071 80.0645C113.156 80.3574 113.198 80.6764 113.198 81.0215V81.6123H109.253V80.875H112.295V80.748C112.295 80.5104 112.253 80.2874 112.168 80.0791C112.087 79.8675 111.953 79.695 111.768 79.5615C111.582 79.4281 111.335 79.3613 111.025 79.3613C110.82 79.3613 110.632 79.4036 110.459 79.4883C110.286 79.5697 110.138 79.6901 110.015 79.8496C109.891 80.0091 109.795 80.2061 109.727 80.4404C109.658 80.6748 109.624 80.9434 109.624 81.2461V81.4609C109.624 81.7246 109.663 81.972 109.741 82.2031C109.819 82.431 109.932 82.6328 110.078 82.8086C110.228 82.9811 110.41 83.1162 110.625 83.2139C110.84 83.3115 111.086 83.3604 111.362 83.3604C111.662 83.3604 111.925 83.3164 112.153 83.2285C112.381 83.1406 112.573 83.0381 112.729 82.9209L113.003 83.541C112.86 83.668 112.651 83.7933 112.378 83.917C112.104 84.0374 111.751 84.0977 111.318 84.0977ZM115.591 83.0625L116.948 78.7168H117.544L117.427 79.5811L116.045 84H115.464L115.591 83.0625ZM114.678 78.7168L115.835 83.1113L115.918 84H115.308L113.774 78.7168H114.678ZM118.843 83.0771L119.946 78.7168H120.845L119.312 84H118.706L118.843 83.0771ZM117.676 78.7168L119.004 82.9893L119.155 84H118.579L117.158 79.5713L117.041 78.7168H117.676ZM122.676 79.7324V86.0312H121.768V78.7168H122.598L122.676 79.7324ZM126.235 81.3145V81.417C126.235 81.8011 126.19 82.1576 126.099 82.4863C126.007 82.8118 125.874 83.0951 125.698 83.3359C125.526 83.5768 125.312 83.764 125.059 83.8975C124.805 84.0309 124.513 84.0977 124.185 84.0977C123.849 84.0977 123.553 84.0423 123.296 83.9316C123.039 83.821 122.821 83.6598 122.642 83.4482C122.463 83.2367 122.319 82.9827 122.212 82.6865C122.108 82.3903 122.036 82.0566 121.997 81.6855V81.1387C122.036 80.748 122.109 80.3981 122.217 80.0889C122.324 79.7796 122.466 79.516 122.642 79.2979C122.821 79.0765 123.037 78.9089 123.291 78.7949C123.545 78.6777 123.838 78.6191 124.17 78.6191C124.502 78.6191 124.797 78.6842 125.054 78.8145C125.311 78.9414 125.527 79.1237 125.703 79.3613C125.879 79.599 126.011 79.8838 126.099 80.2158C126.19 80.5446 126.235 80.9108 126.235 81.3145ZM125.327 81.417V81.3145C125.327 81.0508 125.299 80.8034 125.244 80.5723C125.189 80.3379 125.103 80.1328 124.985 79.957C124.871 79.778 124.725 79.638 124.546 79.5371C124.367 79.4329 124.154 79.3809 123.906 79.3809C123.678 79.3809 123.48 79.4199 123.311 79.498C123.145 79.5762 123.003 79.682 122.886 79.8154C122.769 79.9456 122.673 80.0954 122.598 80.2646C122.526 80.4307 122.472 80.6032 122.437 80.7822V82.0469C122.502 82.2747 122.593 82.4896 122.71 82.6914C122.827 82.89 122.983 83.0511 123.179 83.1748C123.374 83.2952 123.62 83.3555 123.916 83.3555C124.16 83.3555 124.37 83.305 124.546 83.2041C124.725 83.0999 124.871 82.9583 124.985 82.7793C125.103 82.6003 125.189 82.3952 125.244 82.1641C125.299 81.9297 125.327 81.6807 125.327 81.417ZM127.148 81.417V81.3047C127.148 80.9238 127.204 80.5706 127.314 80.2451C127.425 79.9163 127.585 79.6315 127.793 79.3906C128.001 79.1465 128.254 78.9577 128.55 78.8242C128.846 78.6875 129.178 78.6191 129.546 78.6191C129.917 78.6191 130.251 78.6875 130.547 78.8242C130.846 78.9577 131.1 79.1465 131.309 79.3906C131.52 79.6315 131.681 79.9163 131.792 80.2451C131.903 80.5706 131.958 80.9238 131.958 81.3047V81.417C131.958 81.7979 131.903 82.151 131.792 82.4766C131.681 82.8021 131.52 83.0869 131.309 83.3311C131.1 83.5719 130.848 83.7607 130.552 83.8975C130.259 84.0309 129.927 84.0977 129.556 84.0977C129.185 84.0977 128.851 84.0309 128.555 83.8975C128.258 83.7607 128.005 83.5719 127.793 83.3311C127.585 83.0869 127.425 82.8021 127.314 82.4766C127.204 82.151 127.148 81.7979 127.148 81.417ZM128.052 81.3047V81.417C128.052 81.6807 128.083 81.9297 128.145 82.1641C128.206 82.3952 128.299 82.6003 128.423 82.7793C128.55 82.9583 128.708 83.0999 128.896 83.2041C129.085 83.305 129.305 83.3555 129.556 83.3555C129.803 83.3555 130.02 83.305 130.205 83.2041C130.394 83.0999 130.55 82.9583 130.674 82.7793C130.798 82.6003 130.89 82.3952 130.952 82.1641C131.017 81.9297 131.05 81.6807 131.05 81.417V81.3047C131.05 81.0443 131.017 80.7985 130.952 80.5674C130.89 80.333 130.796 80.1263 130.669 79.9473C130.545 79.765 130.389 79.6217 130.2 79.5176C130.015 79.4134 129.797 79.3613 129.546 79.3613C129.299 79.3613 129.08 79.4134 128.892 79.5176C128.706 79.6217 128.55 79.765 128.423 79.9473C128.299 80.1263 128.206 80.333 128.145 80.5674C128.083 80.7985 128.052 81.0443 128.052 81.3047ZM133.994 79.5469V84H133.091V78.7168H133.97L133.994 79.5469ZM135.645 78.6875L135.64 79.5273C135.565 79.5111 135.493 79.5013 135.425 79.498C135.36 79.4915 135.285 79.4883 135.2 79.4883C134.992 79.4883 134.808 79.5208 134.648 79.5859C134.489 79.651 134.354 79.7422 134.243 79.8594C134.132 79.9766 134.045 80.1165 133.979 80.2793C133.918 80.4388 133.877 80.6146 133.857 80.8066L133.604 80.9531C133.604 80.6341 133.634 80.3346 133.696 80.0547C133.761 79.7747 133.861 79.5273 133.994 79.3125C134.128 79.0944 134.297 78.9251 134.502 78.8047C134.71 78.681 134.958 78.6191 135.244 78.6191C135.309 78.6191 135.384 78.6273 135.469 78.6436C135.553 78.6566 135.612 78.6712 135.645 78.6875ZM138.936 78.7168V79.4102H136.079V78.7168H138.936ZM137.046 77.4326H137.949V82.6914C137.949 82.8704 137.977 83.0055 138.032 83.0967C138.088 83.1878 138.159 83.248 138.247 83.2773C138.335 83.3066 138.429 83.3213 138.53 83.3213C138.605 83.3213 138.683 83.3148 138.765 83.3018C138.849 83.2855 138.913 83.2725 138.955 83.2627L138.96 84C138.888 84.0228 138.794 84.0439 138.677 84.0635C138.563 84.0863 138.424 84.0977 138.262 84.0977C138.04 84.0977 137.837 84.0537 137.651 83.9658C137.466 83.8779 137.318 83.7314 137.207 83.5264C137.1 83.318 137.046 83.0381 137.046 82.6865V77.4326ZM147.783 81.5439C147.77 81.8434 147.725 82.1445 147.646 82.4473C147.568 82.7467 147.451 83.0218 147.295 83.2725C147.139 83.5231 146.935 83.7249 146.685 83.8779C146.437 84.0277 146.138 84.1025 145.786 84.1025C145.562 84.1025 145.365 84.0635 145.195 83.9854C145.029 83.904 144.893 83.7884 144.785 83.6387C144.681 83.4889 144.608 83.3083 144.565 83.0967C144.526 82.8851 144.52 82.6491 144.546 82.3887L144.795 79.6836H145.513L145.264 82.3887C145.244 82.6263 145.249 82.82 145.278 82.9697C145.311 83.1195 145.36 83.235 145.425 83.3164C145.49 83.3945 145.563 83.4482 145.645 83.4775C145.729 83.5068 145.811 83.5215 145.889 83.5215C146.084 83.5215 146.258 83.471 146.411 83.3701C146.564 83.266 146.693 83.1243 146.797 82.9453C146.904 82.763 146.987 82.5531 147.046 82.3154C147.104 82.0745 147.14 81.8174 147.153 81.5439C147.176 81.0589 147.153 80.613 147.085 80.2061C147.02 79.7992 146.908 79.4378 146.748 79.1221C146.592 78.8063 146.387 78.5394 146.133 78.3213C145.879 78.1032 145.576 77.9372 145.225 77.8232C144.873 77.7093 144.471 77.6523 144.019 77.6523C143.608 77.6523 143.229 77.7158 142.881 77.8428C142.536 77.9665 142.225 78.1455 141.948 78.3799C141.675 78.6143 141.439 78.8958 141.24 79.2246C141.045 79.5534 140.89 79.9245 140.776 80.3379C140.666 80.748 140.601 81.1908 140.581 81.666C140.558 82.1543 140.584 82.6035 140.659 83.0137C140.734 83.4206 140.854 83.7835 141.021 84.1025C141.19 84.4248 141.403 84.6966 141.66 84.918C141.917 85.1426 142.215 85.3118 142.554 85.4258C142.892 85.543 143.27 85.6016 143.687 85.6016C143.973 85.6016 144.263 85.5674 144.556 85.499C144.852 85.4307 145.099 85.3379 145.298 85.2207L145.483 85.7773C145.256 85.9238 144.971 86.0329 144.629 86.1045C144.29 86.1761 143.97 86.2119 143.667 86.2119C143.172 86.2119 142.72 86.1436 142.31 86.0068C141.903 85.8734 141.541 85.6764 141.226 85.416C140.913 85.1589 140.653 84.8447 140.444 84.4736C140.236 84.1058 140.083 83.6859 139.985 83.2139C139.888 82.7419 139.85 82.2259 139.873 81.666C139.896 81.1322 139.976 80.6292 140.112 80.1572C140.252 79.6852 140.443 79.2572 140.684 78.873C140.924 78.4889 141.211 78.1585 141.543 77.8818C141.878 77.6019 142.254 77.387 142.671 77.2373C143.091 77.0876 143.547 77.0127 144.038 77.0127C144.539 77.0127 144.993 77.0811 145.4 77.2178C145.807 77.3545 146.164 77.5514 146.47 77.8086C146.779 78.0658 147.035 78.3799 147.236 78.751C147.438 79.1221 147.585 79.542 147.676 80.0107C147.77 80.4795 147.806 80.9906 147.783 81.5439ZM142.769 81.959C142.746 82.1868 142.746 82.3903 142.769 82.5693C142.791 82.7484 142.835 82.8997 142.9 83.0234C142.965 83.1471 143.05 83.2415 143.154 83.3066C143.262 83.3685 143.387 83.3994 143.53 83.3994C143.625 83.3994 143.724 83.3766 143.828 83.3311C143.932 83.2822 144.035 83.2074 144.136 83.1064C144.237 83.0055 144.331 82.8737 144.419 82.7109C144.507 82.5482 144.58 82.3529 144.639 82.125L144.961 82.4766C144.886 82.7435 144.788 82.9779 144.668 83.1797C144.551 83.3815 144.419 83.5508 144.272 83.6875C144.126 83.8242 143.97 83.9284 143.804 84C143.641 84.0684 143.475 84.1025 143.306 84.1025C143.068 84.1025 142.86 84.0521 142.681 83.9512C142.502 83.847 142.357 83.7005 142.246 83.5117C142.135 83.3229 142.057 83.0983 142.012 82.8379C141.969 82.5742 141.963 82.2812 141.992 81.959C142.021 81.6172 142.082 81.3014 142.173 81.0117C142.264 80.722 142.376 80.4632 142.51 80.2354C142.646 80.0075 142.799 79.8138 142.969 79.6543C143.141 79.4948 143.324 79.3743 143.516 79.293C143.708 79.2083 143.905 79.166 144.106 79.166C144.458 79.166 144.735 79.2181 144.937 79.3223C145.138 79.4232 145.33 79.5436 145.513 79.6836L145.098 80.167C145.003 80.0758 144.88 79.9912 144.727 79.9131C144.574 79.835 144.393 79.7959 144.185 79.7959C144.006 79.7959 143.838 79.8415 143.682 79.9326C143.525 80.0238 143.384 80.1605 143.257 80.3428C143.133 80.5251 143.029 80.7513 142.944 81.0215C142.86 81.2884 142.801 81.6009 142.769 81.959ZM152.461 78.7168H153.223V83.707C153.223 84.2116 153.133 84.6413 152.954 84.9961C152.775 85.3509 152.515 85.6211 152.173 85.8066C151.834 85.9922 151.419 86.085 150.928 86.085C150.7 86.085 150.438 86.0492 150.142 85.9775C149.849 85.9092 149.587 85.805 149.355 85.665L149.629 84.9863C149.808 85.097 150.011 85.1833 150.239 85.2451C150.467 85.3102 150.693 85.3428 150.918 85.3428C151.243 85.3428 151.509 85.2826 151.714 85.1621C151.919 85.0417 152.07 84.8626 152.168 84.625C152.269 84.3874 152.319 84.096 152.319 83.751V79.8789L152.461 78.7168ZM148.765 81.4219V81.3193C148.765 80.9157 148.812 80.5495 148.906 80.2207C149.004 79.8887 149.142 79.6038 149.321 79.3662C149.504 79.1253 149.723 78.9414 149.98 78.8145C150.238 78.6842 150.527 78.6191 150.85 78.6191C151.182 78.6191 151.471 78.6777 151.719 78.7949C151.969 78.9089 152.181 79.0765 152.354 79.2979C152.529 79.516 152.668 79.7796 152.769 80.0889C152.869 80.3981 152.939 80.748 152.979 81.1387V81.5879C152.943 81.9753 152.873 82.3236 152.769 82.6328C152.668 82.9421 152.529 83.2057 152.354 83.4238C152.181 83.6419 151.969 83.8096 151.719 83.9268C151.468 84.0407 151.175 84.0977 150.84 84.0977C150.524 84.0977 150.238 84.0309 149.98 83.8975C149.727 83.764 149.508 83.5785 149.326 83.3408C149.144 83.0999 149.004 82.8167 148.906 82.4912C148.812 82.1624 148.765 81.806 148.765 81.4219ZM149.668 81.3193V81.4219C149.668 81.6855 149.694 81.9329 149.746 82.1641C149.801 82.3919 149.884 82.5938 149.995 82.7695C150.109 82.9453 150.254 83.0837 150.43 83.1846C150.605 83.2822 150.815 83.3311 151.06 83.3311C151.359 83.3311 151.606 83.2676 151.802 83.1406C151.997 83.0137 152.152 82.846 152.266 82.6377C152.383 82.4294 152.474 82.2031 152.539 81.959V80.7822C152.503 80.6032 152.448 80.4307 152.373 80.2646C152.301 80.0954 152.207 79.9456 152.09 79.8154C151.976 79.682 151.834 79.5762 151.665 79.498C151.496 79.4199 151.297 79.3809 151.069 79.3809C150.822 79.3809 150.609 79.4313 150.43 79.5322C150.254 79.6299 150.109 79.7666 149.995 79.9424C149.884 80.1182 149.801 80.3232 149.746 80.5576C149.694 80.792 149.668 81.0459 149.668 81.3193ZM155.493 79.7666V84H154.585V78.7168H155.444L155.493 79.7666ZM155.308 81.1582L154.888 81.1436C154.891 80.7822 154.938 80.4486 155.029 80.1426C155.12 79.8333 155.256 79.5648 155.435 79.3369C155.614 79.109 155.837 78.9333 156.104 78.8096C156.37 78.6826 156.68 78.6191 157.031 78.6191C157.279 78.6191 157.507 78.6549 157.715 78.7266C157.923 78.7949 158.104 78.904 158.257 79.0537C158.41 79.2035 158.529 79.3955 158.613 79.6299C158.698 79.8643 158.74 80.1475 158.74 80.4795V84H157.837V80.5234C157.837 80.2467 157.79 80.0254 157.695 79.8594C157.604 79.6934 157.474 79.5729 157.305 79.498C157.135 79.4199 156.937 79.3809 156.709 79.3809C156.442 79.3809 156.219 79.4281 156.04 79.5225C155.861 79.6169 155.718 79.7471 155.61 79.9131C155.503 80.0791 155.425 80.2695 155.376 80.4844C155.33 80.696 155.308 80.9206 155.308 81.1582ZM158.73 80.6602L158.125 80.8457C158.128 80.556 158.175 80.2777 158.267 80.0107C158.361 79.7438 158.496 79.5062 158.672 79.2979C158.851 79.0895 159.071 78.9251 159.331 78.8047C159.591 78.681 159.889 78.6191 160.225 78.6191C160.508 78.6191 160.758 78.6566 160.977 78.7314C161.198 78.8063 161.383 78.9219 161.533 79.0781C161.686 79.2311 161.802 79.4281 161.88 79.6689C161.958 79.9098 161.997 80.1963 161.997 80.5283V84H161.089V80.5186C161.089 80.2223 161.042 79.9928 160.947 79.8301C160.856 79.6641 160.726 79.5485 160.557 79.4834C160.391 79.415 160.192 79.3809 159.961 79.3809C159.762 79.3809 159.587 79.415 159.434 79.4834C159.281 79.5518 159.152 79.6462 159.048 79.7666C158.944 79.8838 158.864 80.0189 158.809 80.1719C158.757 80.3249 158.73 80.4876 158.73 80.6602ZM166.479 83.0967V80.377C166.479 80.1686 166.437 79.988 166.353 79.835C166.271 79.6787 166.147 79.5583 165.981 79.4736C165.815 79.389 165.61 79.3467 165.366 79.3467C165.138 79.3467 164.938 79.3857 164.766 79.4639C164.596 79.542 164.463 79.6445 164.365 79.7715C164.271 79.8984 164.224 80.0352 164.224 80.1816H163.32C163.32 79.9928 163.369 79.8057 163.467 79.6201C163.564 79.4346 163.704 79.2669 163.887 79.1172C164.072 78.9642 164.294 78.8438 164.551 78.7559C164.811 78.6647 165.101 78.6191 165.42 78.6191C165.804 78.6191 166.143 78.6842 166.436 78.8145C166.732 78.9447 166.963 79.1416 167.129 79.4053C167.298 79.6657 167.383 79.9928 167.383 80.3867V82.8477C167.383 83.0234 167.397 83.2106 167.427 83.4092C167.459 83.6077 167.507 83.7786 167.568 83.9219V84H166.626C166.58 83.8958 166.545 83.7575 166.519 83.585C166.493 83.4092 166.479 83.2464 166.479 83.0967ZM166.636 80.7969L166.646 81.4316H165.732C165.475 81.4316 165.246 81.4528 165.044 81.4951C164.842 81.5342 164.673 81.5944 164.536 81.6758C164.399 81.7572 164.295 81.8597 164.224 81.9834C164.152 82.1038 164.116 82.2454 164.116 82.4082C164.116 82.5742 164.154 82.7256 164.229 82.8623C164.303 82.999 164.416 83.1081 164.565 83.1895C164.718 83.2676 164.906 83.3066 165.127 83.3066C165.404 83.3066 165.648 83.248 165.859 83.1309C166.071 83.0137 166.239 82.8704 166.362 82.7012C166.489 82.5319 166.558 82.3675 166.567 82.208L166.953 82.6426C166.93 82.7793 166.868 82.9307 166.768 83.0967C166.667 83.2627 166.532 83.4222 166.362 83.5752C166.196 83.7249 165.998 83.8503 165.767 83.9512C165.539 84.0488 165.282 84.0977 164.995 84.0977C164.637 84.0977 164.323 84.0277 164.053 83.8877C163.786 83.7477 163.577 83.5605 163.428 83.3262C163.281 83.0885 163.208 82.8232 163.208 82.5303C163.208 82.2471 163.263 81.998 163.374 81.7832C163.485 81.5651 163.644 81.3844 163.853 81.2412C164.061 81.0947 164.312 80.984 164.604 80.9092C164.897 80.8343 165.225 80.7969 165.586 80.7969H166.636ZM169.785 78.7168V84H168.877V78.7168H169.785ZM168.809 77.3154C168.809 77.1689 168.853 77.0452 168.94 76.9443C169.032 76.8434 169.165 76.793 169.341 76.793C169.513 76.793 169.645 76.8434 169.736 76.9443C169.831 77.0452 169.878 77.1689 169.878 77.3154C169.878 77.4554 169.831 77.5758 169.736 77.6768C169.645 77.7744 169.513 77.8232 169.341 77.8232C169.165 77.8232 169.032 77.7744 168.94 77.6768C168.853 77.5758 168.809 77.4554 168.809 77.3154ZM172.217 76.5V84H171.309V76.5H172.217ZM173.682 83.5215C173.682 83.3685 173.729 83.2399 173.823 83.1357C173.921 83.0283 174.061 82.9746 174.243 82.9746C174.425 82.9746 174.564 83.0283 174.658 83.1357C174.756 83.2399 174.805 83.3685 174.805 83.5215C174.805 83.6712 174.756 83.7982 174.658 83.9023C174.564 84.0065 174.425 84.0586 174.243 84.0586C174.061 84.0586 173.921 84.0065 173.823 83.9023C173.729 83.7982 173.682 83.6712 173.682 83.5215ZM178.418 83.3555C178.633 83.3555 178.831 83.3115 179.014 83.2236C179.196 83.1357 179.346 83.0153 179.463 82.8623C179.58 82.7061 179.647 82.5286 179.663 82.3301H180.522C180.506 82.6426 180.4 82.9339 180.205 83.2041C180.013 83.471 179.761 83.6875 179.448 83.8535C179.136 84.0163 178.792 84.0977 178.418 84.0977C178.021 84.0977 177.674 84.0277 177.378 83.8877C177.085 83.7477 176.841 83.5557 176.646 83.3115C176.453 83.0674 176.309 82.7874 176.211 82.4717C176.117 82.1527 176.069 81.8158 176.069 81.4609V81.2559C176.069 80.901 176.117 80.5658 176.211 80.25C176.309 79.931 176.453 79.6494 176.646 79.4053C176.841 79.1611 177.085 78.9691 177.378 78.8291C177.674 78.6891 178.021 78.6191 178.418 78.6191C178.831 78.6191 179.193 78.7038 179.502 78.873C179.811 79.0391 180.054 79.2669 180.229 79.5566C180.409 79.8431 180.506 80.1686 180.522 80.5332H179.663C179.647 80.3151 179.585 80.1182 179.478 79.9424C179.373 79.7666 179.23 79.6266 179.048 79.5225C178.869 79.415 178.659 79.3613 178.418 79.3613C178.141 79.3613 177.909 79.4167 177.72 79.5273C177.534 79.6348 177.386 79.7812 177.275 79.9668C177.168 80.1491 177.09 80.3525 177.041 80.5771C176.995 80.7985 176.973 81.0247 176.973 81.2559V81.4609C176.973 81.6921 176.995 81.9199 177.041 82.1445C177.087 82.3691 177.163 82.5726 177.271 82.7549C177.381 82.9372 177.529 83.0837 177.715 83.1943C177.904 83.3018 178.138 83.3555 178.418 83.3555ZM181.299 81.417V81.3047C181.299 80.9238 181.354 80.5706 181.465 80.2451C181.576 79.9163 181.735 79.6315 181.943 79.3906C182.152 79.1465 182.404 78.9577 182.7 78.8242C182.996 78.6875 183.328 78.6191 183.696 78.6191C184.067 78.6191 184.401 78.6875 184.697 78.8242C184.997 78.9577 185.251 79.1465 185.459 79.3906C185.671 79.6315 185.832 79.9163 185.942 80.2451C186.053 80.5706 186.108 80.9238 186.108 81.3047V81.417C186.108 81.7979 186.053 82.151 185.942 82.4766C185.832 82.8021 185.671 83.0869 185.459 83.3311C185.251 83.5719 184.998 83.7607 184.702 83.8975C184.409 84.0309 184.077 84.0977 183.706 84.0977C183.335 84.0977 183.001 84.0309 182.705 83.8975C182.409 83.7607 182.155 83.5719 181.943 83.3311C181.735 83.0869 181.576 82.8021 181.465 82.4766C181.354 82.151 181.299 81.7979 181.299 81.417ZM182.202 81.3047V81.417C182.202 81.6807 182.233 81.9297 182.295 82.1641C182.357 82.3952 182.45 82.6003 182.573 82.7793C182.7 82.9583 182.858 83.0999 183.047 83.2041C183.236 83.305 183.455 83.3555 183.706 83.3555C183.953 83.3555 184.17 83.305 184.355 83.2041C184.544 83.0999 184.701 82.9583 184.824 82.7793C184.948 82.6003 185.041 82.3952 185.103 82.1641C185.168 81.9297 185.2 81.6807 185.2 81.417V81.3047C185.2 81.0443 185.168 80.7985 185.103 80.5674C185.041 80.333 184.946 80.1263 184.819 79.9473C184.696 79.765 184.539 79.6217 184.351 79.5176C184.165 79.4134 183.947 79.3613 183.696 79.3613C183.449 79.3613 183.231 79.4134 183.042 79.5176C182.856 79.6217 182.7 79.765 182.573 79.9473C182.45 80.1263 182.357 80.333 182.295 80.5674C182.233 80.7985 182.202 81.0443 182.202 81.3047ZM188.14 79.7666V84H187.231V78.7168H188.091L188.14 79.7666ZM187.954 81.1582L187.534 81.1436C187.537 80.7822 187.585 80.4486 187.676 80.1426C187.767 79.8333 187.902 79.5648 188.081 79.3369C188.26 79.109 188.483 78.9333 188.75 78.8096C189.017 78.6826 189.326 78.6191 189.678 78.6191C189.925 78.6191 190.153 78.6549 190.361 78.7266C190.57 78.7949 190.75 78.904 190.903 79.0537C191.056 79.2035 191.175 79.3955 191.26 79.6299C191.344 79.8643 191.387 80.1475 191.387 80.4795V84H190.483V80.5234C190.483 80.2467 190.436 80.0254 190.342 79.8594C190.251 79.6934 190.12 79.5729 189.951 79.498C189.782 79.4199 189.583 79.3809 189.355 79.3809C189.089 79.3809 188.866 79.4281 188.687 79.5225C188.507 79.6169 188.364 79.7471 188.257 79.9131C188.149 80.0791 188.071 80.2695 188.022 80.4844C187.977 80.696 187.954 80.9206 187.954 81.1582ZM191.377 80.6602L190.771 80.8457C190.775 80.556 190.822 80.2777 190.913 80.0107C191.007 79.7438 191.143 79.5062 191.318 79.2979C191.497 79.0895 191.717 78.9251 191.978 78.8047C192.238 78.681 192.536 78.6191 192.871 78.6191C193.154 78.6191 193.405 78.6566 193.623 78.7314C193.844 78.8063 194.03 78.9219 194.18 79.0781C194.333 79.2311 194.448 79.4281 194.526 79.6689C194.604 79.9098 194.644 80.1963 194.644 80.5283V84H193.735V80.5186C193.735 80.2223 193.688 79.9928 193.594 79.8301C193.503 79.6641 193.372 79.5485 193.203 79.4834C193.037 79.415 192.839 79.3809 192.607 79.3809C192.409 79.3809 192.233 79.415 192.08 79.4834C191.927 79.5518 191.799 79.6462 191.694 79.7666C191.59 79.8838 191.51 80.0189 191.455 80.1719C191.403 80.3249 191.377 80.4876 191.377 80.6602Z" fill="#334155"/>
</g>
<defs>
<clipPath id="clip0_96_82">
<rect width="237" height="88" fill="white"/>
</clipPath>
</defs>
</svg>
